<svg xmlns="http://www.w3.org/2000/svg" width="1200" height="701" fill="none" viewBox="0 0 1200 701"><path fill="#E1B193" d="M582.715 506.41q-.405-.8-1.711-1.682a.2.2 0 0 1-.039-.036q-.309-.375-3.294-1.173a.1.1 0 0 1-.034-.013q-.585-.285-.745-.716l.017.034q-.802-1.338 1.505-6.332l-.006.014q2.224-5.593 5.748-8.262l-.009.007q2.114-1.746 3.654-2.361l-.005.002q3.947-1.682 4.511-1.331a.32.32 0 0 1 .146.197.4.4 0 0 1 .012.071.2.2 0 0 1-.003.061q-.794 4.55-4.94 13.822l.002-.006q-2.466 5.892-4.571 7.973c-.096.096-.238.1-.316.011s-.063-.239.033-.335q2.025-2.001 4.447-7.788l.002-.006q4.12-9.211 4.901-13.694l-.003.061.002.014q.007.026.022.035-.39-.242-4.128 1.351l-.005.002q-1.465.585-3.515 2.278l-.009.007q-3.399 2.576-5.565 8.021l-.006.014q-2.194 4.75-1.515 5.884.01.015.016.034.105.284.555.504l-.034-.013q3.101.829 3.486 1.296l-.04-.036q1.387.936 1.837 1.826c.055.108.009.256-.102.329s-.246.045-.301-.064"/><path fill="#E1B193" d="M582.771 505.638q-1.549 3.757-3.15 6.683l.002-.003q-.864 1.62-1.511 2.333l-.011.011q-2.403 2.376-4.62 1.37l.003.001q-2.916-1.263-1.631-4.308l-.003.009q.273-.717.916-1.239l-.02.018q.444-.437 2.468-1.598l-.024.016q.43-.314.72-.688l-.002.002q.474-.624.991-1.685l-.014.032q.957-2.792 1.225-3.124a.33.33 0 0 1 .201-.13c.123-.02.226.068.229.197a.276.276 0 0 1-.22.271.18.18 0 0 0 .115-.061q-.204.253-1.129 2.952l-.013.032q-.542 1.11-1.049 1.779l-.002.003a4.1 4.1 0 0 1-.857.813q-1.963 1.127-2.357 1.514l-.02.018q-.525.426-.744 1l-.004.01q-1.107 2.622 1.441 3.725l.003.002q1.95.885 4.115-1.255l-.011.011q.6-.66 1.43-2.218l.001-.002q1.587-2.9 3.123-6.627c.052-.126.185-.197.298-.159s.162.17.111.295m-4.866-3.68q.21-2.619 1.41-5.455c.053-.125.187-.195.299-.156s.161.172.108.297q-1.166 2.755-1.369 5.289c-.011.13-.119.242-.243.248s-.215-.093-.205-.223m2.276-6.741q.115-.184.592-1.045l.003-.005.296-.51c.068-.117.208-.167.311-.11.104.056.132.197.064.316l-.296.509.002-.005a34 34 0 0 1-.606 1.07c-.072.116-.212.16-.313.099-.102-.06-.125-.203-.053-.319m1.361-2.927q.126-.141.216-.253c.085-.106.227-.131.317-.055s.094.224.009.33a9 9 0 0 1-.233.275c-.091.101-.233.118-.318.036s-.081-.231.009-.333"/><path fill="#E1B193" d="M576.497 514.775q1.218-1.023 2.37-3.123c.065-.119.204-.173.309-.12s.138.193.073.313q-1.204 2.195-2.502 3.284c-.104.087-.243.078-.312-.02s-.041-.247.062-.334m2.745-4.177-.006.009a108 108 0 0 0 .616-1.22c.061-.122.198-.182.306-.135.109.047.148.185.087.307a111 111 0 0 1-.636 1.257l-.015.023c-.077.113-.219.15-.316.083s-.113-.212-.036-.324m-168.873-98.534q1.503 2.071 1.422 2.894l.001-.041q.098 1.598-.981 2.955l-.004.004q-2.107 2.547-5.218.12l-.004-.003a16.1 16.1 0 0 1-3.241-3.616l.002.004q-1.34-1.941-1.005-2.898l-.004.012q.712-2.395 2.399-3.447a.3.3 0 0 1 .094-.035q1.52-.217 3.576 1.696a.257.257 0 0 1 .014.355.24.24 0 0 1-.345.022q-1.89-1.76-3.187-1.574l.095-.035q-1.524.95-2.179 3.157l-.004.012q-.248.708.946 2.438l.002.004q1.35 2.04 3.144 3.508l-.004-.003q2.747 2.14 4.551-.039l-.003.004q.954-1.202.869-2.6v-.041q.061-.63-1.329-2.547a.26.26 0 0 1 .052-.353.24.24 0 0 1 .341.047"/><path fill="#E1B193" d="M408.332 410.365q.264.263.54.452a.254.254 0 0 1 .063.348.24.24 0 0 1-.339.071 4.4 4.4 0 0 1-.606-.508.254.254 0 0 1-.003-.354.24.24 0 0 1 .345-.009m-2.481 1.578c.286.426.078.994-.325 1.286s-.989.299-1.274-.126c-.286-.426-.079-.994.324-1.286.404-.293.989-.299 1.275.126m-.403.292c-.086-.128-.339-.195-.596-.009-.258.187-.284.456-.198.585.087.128.339.196.597.009s.283-.456.197-.585m3.236 2.07c.398.593.209 1.414-.379 1.841-.589.426-1.396.327-1.794-.266s-.21-1.414.378-1.841c.589-.426 1.396-.327 1.795.266m-.403.292c-.231-.344-.727-.43-1.116-.147-.39.282-.483.794-.252 1.138s.727.43 1.116.148.483-.795.252-1.139m-6.752-2.464q-5.095-7.627-5.506-7.963.114.093.254-.009.137-.097.099-.235l.001.004a.26.26 0 0 1-.112.299.24.24 0 0 1-.304-.048q-1.802-2.098-4.415-3.79l.005.003q-1.445-.884-2.914-1.068l.067-.002q-5.897.939-6.913.336l.052.022q-2.506-.757-4.288-2.941l-.003-.003q-5.103-6.461-.779-13.84l.007-.011q2.62-3.988 7.278-5.193l.006-.001q4.847-1.106 8.192 1.99l-.005-.005q2.445 2.137 3.295 7.266v-.001q.372 2.19.299 3.911l-.003.031q-.801 4.857-.731 5.264-.013-.077-.097-.126c.072.043.116.12.119.206q.04 1.407.549 2.5l.004.008q1.607 3.819 8.644 9.424a.255.255 0 0 1 .04.353.24.24 0 0 1-.342.048q-7.134-5.683-8.79-9.617l.003.008q-.552-1.187-.596-2.699l.119.206q-.108-.064-.134-.214-.084-.493.731-5.436l-.004.031q.072-1.665-.292-3.802v-.001q-.82-4.953-3.133-6.973l-.005-.005q-3.162-2.925-7.766-1.876l.007-.002q-4.472 1.156-6.986 4.982l.007-.011q-4.144 7.073.744 13.263l-.003-.003q1.69 2.071 4.058 2.786a.3.3 0 0 1 .052.023q.87.516 6.599-.395a.2.2 0 0 1 .066-.001q1.57.198 3.101 1.134l.005.003q2.671 1.73 4.518 3.88l-.416.252-.007-.026q-.056-.209.097-.318.16-.115.328.023.466.38 5.602 8.068a.26.26 0 0 1-.065.351.24.24 0 0 1-.339-.06"/><path fill="#E1B193" d="M384.23 395.787q1.445-.084 2.379-.461l-.002.001q.968-.401 2.014-1.286l.001-.001q1.493-1.245 2.192-4.069a.25.25 0 0 1 .297-.188c.13.032.209.168.175.303q-.74 2.99-2.361 4.344l.001-.002q-1.105.935-2.145 1.365l-.002.001q-1.008.408-2.53.496a.24.24 0 0 1-.253-.238.255.255 0 0 1 .234-.265m4.964-7.497q-.039-.689-.826-2.218l.005.008q-.549-.975-1.307-1.595l.006.005q-1.58-1.21-3.377-.934a.24.24 0 0 1-.274-.212.256.256 0 0 1 .211-.286q1.995-.306 3.736 1.026l.006.005q.828.677 1.422 1.733l.004.008q.836 1.623.881 2.421a.255.255 0 0 1-.229.271.24.24 0 0 1-.258-.232M83.052 446.078q1.05 2.064-1.983 4.999a108 108 0 0 0-4.394 4.588l-.009.009q-.808.803-1.523 1.344l.008-.006q-1.64 1.349-3.235.98a.2.2 0 0 1-.052-.018q-2.794-1.337-1.526-3.861.4-.798 1.225-1.712.01-.012.023-.022 5.795-4.955 7.742-5.787l-.031.016q3.113-1.875 4.094-.461a.24.24 0 0 1-.066.34.253.253 0 0 1-.347-.064q-.714-1.03-3.421.601l-.031.017q-1.876.801-7.612 5.706l.022-.023q-.78.864-1.15 1.604-1.047 2.083 1.299 3.207l-.052-.019q1.35.313 2.797-.878l.009-.006q.689-.522 1.472-1.301l-.008.009a108 108 0 0 1 4.415-4.609l.001-.001q2.774-2.686 1.886-4.431a.244.244 0 0 1 .112-.329.25.25 0 0 1 .335.108"/><path fill="#E1B193" d="M71.185 457.182q.246.49.049 1.055l.002-.01q-.153.51-.644.824l-.003.001a1.7 1.7 0 0 1-1.136.244 1.23 1.23 0 0 1-.88-.527q-.46-.77.074-1.463l-.004.006q.208-.288.814-.61l-.005.003q.473-.264.962-.37a.25.25 0 0 1 .3.184.246.246 0 0 1-.194.291 3 3 0 0 0-.819.316l-.004.003q-.502.266-.642.459l-.004.006q-.335.434-.04.928l-.014-.021q.203.273.524.311.44.054.798-.168l-.003.001a.98.98 0 0 0 .435-.55l.004-.009q.131-.376-.024-.687a.24.24 0 0 1 .117-.326.255.255 0 0 1 .337.109m11.68-9.206q2.154-1.623 3.823-2.544l.008-.005q9.369-4.695 9.948-5.187l.034-.024q2.673-1.59 4.499-3.328l-.002.003q5.683-5.568 4.492-10.443l.017.048q-1.786-3.68-4.39-4.229-.012-.002-.025-.007-2.852-.915-5.666 1.443l-.01.008q-2.112 1.59-3.886 4.66l-.002.003q-.641 1.07-1.336 2.54v-.002l-4.857 10.467-.007.014q-1.54 2.841-3.108 4.484a.25.25 0 0 1-.35.01.24.24 0 0 1-.01-.346q1.521-1.595 3.03-4.379l-.006.014 4.857-10.468.001-.001q.707-1.492 1.359-2.582l-.002.003q1.824-3.156 4.017-4.807l-.01.008q3.024-2.536 6.14-1.534l-.024-.007q2.841.6 4.733 4.496a.3.3 0 0 1 .017.048q1.257 5.144-4.625 10.907l-.003.003q-1.867 1.775-4.588 3.393l.034-.023q-.625.53-10.047 5.252l.009-.004q-1.638.903-3.763 2.506a.25.25 0 0 1-.348-.046.244.244 0 0 1 .047-.344"/><path fill="#E1B193" d="M103.706 424.241q.2 4.833-3.455 9.019l.036-.055q-.66 1.37-13.853 11.404l.016-.013q-1.861 1.68-2.97 3.224a.25.25 0 0 1-.344.059.24.24 0 0 1-.06-.339q1.139-1.588 3.04-3.303l.016-.014q13.099-9.961 13.708-11.226a.3.3 0 0 1 .036-.054q3.527-4.039 3.335-8.681a.247.247 0 0 1 .238-.254.245.245 0 0 1 .257.233"/><path fill="#E1B193" d="M104.194 424.676q-3.49.298-7.258 4.306l.002-.002q-3.384 3.687-4.717 5.447l.004-.007q-2.48 3.497-4.688 6.189l.016-.022q-3.47 5.354-3.956 5.697-.172.123-.33.033l-.022-.014a.224.224 0 0 1-.047-.327.26.26 0 0 1 .33-.062q-.127-.071-.224-.003.408-.288 3.827-5.563l.016-.021q2.197-2.68 4.668-6.162l.004-.006q1.348-1.778 4.746-5.482l.002-.002q3.903-4.15 7.592-4.466c.137-.011.256.084.265.212.01.129-.093.243-.23.255m-32.822 30.788q.234.322.707.463l.003.001a1.8 1.8 0 0 0 .984.024l-.008.002q.962-.27 2.645-1.911a.234.234 0 0 1 .346.025.277.277 0 0 1-.011.372q-1.769 1.722-2.842 2.024l-.008.002a2.25 2.25 0 0 1-1.228-.032l.003.001q-.635-.19-.972-.656c-.085-.117-.068-.282.037-.368.106-.088.26-.064.344.053m5.343-2.328a69 69 0 0 0 1.585-1.351.274.274 0 0 1 .368.001.23.23 0 0 1-.011.342q-.44.395-1.6 1.363a.27.27 0 0 1-.367-.014.23.23 0 0 1 .025-.341m2.25-2.143q.16-.237.376-.485a.32.32 0 0 1 .398-.06.218.218 0 0 1 .047.339q-.195.222-.336.431a.32.32 0 0 1-.387.103c-.134-.062-.178-.209-.098-.328M1109.7 24.311q2.145-.91 4.89 2.29 1.83 2.097 4.32 4.656c.01.003.01.006.01.01.5.568.92 1.101 1.25 1.597v-.008c.83 1.143 1.09 2.234.77 3.273 0 .018-.01.035-.02.05-1.01 1.792-2.34 2.214-3.97 1.267-.52-.3-1.06-.742-1.64-1.326-.01-.008-.02-.016-.02-.025q-4.605-6.069-5.31-8.055l.01.032c-1.12-2.14-1.18-3.505-.19-4.094.11-.07.26-.03.33.088.07.119.03.27-.08.34-.72.429-.6 1.573.38 3.434 0 .01.01.021.01.032.46 1.276 2.2 3.916 5.24 7.922l-.02-.024q.81.83 1.53 1.246 2.025 1.172 3.3-1.084l-.02.05c.27-.88.04-1.824-.7-2.832v-.009c-.32-.477-.73-.992-1.21-1.545v.01c-1.67-1.714-3.12-3.274-4.34-4.68-1.67-1.951-3.12-2.67-4.32-2.157a.255.255 0 0 1-.33-.132.256.256 0 0 1 .13-.326"/><path fill="#E1B193" d="M1120.08 36.803c.34-.142.69-.136 1.07.02l-.01-.004q.495.184.78.693v.002c.19.354.25.735.17 1.144-.06.351-.25.626-.56.826-.01.005-.02.01-.02.012q-.81.408-1.47-.167l.01.005c-.18-.15-.37-.433-.56-.847v.005a3.7 3.7 0 0 1-.31-.98.25.25 0 0 1 .21-.284.25.25 0 0 1 .28.21c.04.278.13.555.26.833v.005q.24.515.42.666c.01.002.01.004.01.005.28.24.58.273.93.1l-.02.012c.19-.123.3-.29.34-.5q.09-.434-.12-.803l.01.003c-.13-.23-.31-.386-.53-.467 0-.002 0-.003-.01-.004a.86.86 0 0 0-.69-.02.245.245 0 0 1-.32-.138.257.257 0 0 1 .13-.327m-8.48-12.185q-1.5-2.241-2.31-3.957v-.009c-2.74-6.4-4.26-9.801-4.57-10.206-.01-.011-.01-.023-.02-.035-.95-1.836-1.97-3.396-3.05-4.68v.003c-3.48-3.999-6.87-5.709-10.19-5.13l.05-.014c-2.54 1.023-4.04 2.385-4.52 4.084-.01.008-.01.016-.01.024q-1.11 2.772 1.08 5.716c0 .004 0 .007.01.01.97 1.466 2.45 2.852 4.42 4.158l.01.001c.68.47 1.51.967 2.46 1.49l10.19 5.494c0 .002.01.005.01.008 1.84 1.141 3.27 2.265 4.3 3.373.09.1.09.255-.01.348a.25.25 0 0 1-.35-.012q-1.5-1.613-4.2-3.29l.01.007-10.19-5.495c-.97-.532-1.8-1.036-2.5-1.515v.002q-3.045-2.014-4.56-4.296v.011q-2.34-3.165-1.14-6.193l-.01.024c.52-1.854 2.13-3.323 4.82-4.407a.2.2 0 0 1 .05-.014c3.49-.61 7.04 1.153 10.64 5.292l.01.003c1.11 1.312 2.14 2.902 3.11 4.772l-.02-.036q.48.655 4.62 10.31v-.01c.53 1.123 1.29 2.421 2.27 3.896.07.114.04.267-.07.342a.244.244 0 0 1-.34-.069"/><path fill="#E1B193" d="M1089.12 2.407c3.24.076 6.19 1.413 8.83 4.01l-.05-.04c.89.496 4.4 5.324 10.55 14.483l-.01-.017c1.04 1.304 2.05 2.356 3.04 3.154.11.086.12.241.04.347a.25.25 0 0 1-.35.037q-1.515-1.232-3.12-3.23c0-.005 0-.01-.01-.016q-9.15-13.641-10.38-14.327a.14.14 0 0 1-.05-.04c-2.55-2.506-5.39-3.796-8.5-3.868a.25.25 0 0 1-.24-.252c0-.136.12-.244.25-.24"/><path fill="#E1B193" d="M1089.59 1.95c.05 2.323 1.33 4.817 3.85 7.482v-.003q3.48 3.595 5.16 5.032v-.005q3.345 2.687 5.91 5.051l-.03-.017c3.44 2.526 5.26 3.957 5.47 4.293.07.12.08.23.01.33-.01.008-.01.015-.02.021a.225.225 0 0 1-.33.025.26.26 0 0 1-.03-.348c0 .006-.01.011-.01.017-.05.08-.06.154-.02.221-.17-.281-1.95-1.667-5.33-4.155-.01-.006-.02-.011-.02-.018-1.7-1.568-3.66-3.245-5.89-5.029v-.004c-1.13-.968-2.86-2.656-5.2-5.064v-.002q-3.915-4.14-3.99-7.822c0-.136.1-.248.23-.249s.24.108.24.245m28.78 34.555q.345-.21.51-.671v-.003q.18-.457.09-.975v.008c-.14-.648-.72-1.564-1.75-2.748-.09-.104-.06-.257.05-.342a.277.277 0 0 1 .37.035c1.08 1.244 1.7 2.228 1.85 2.95v.009c.08.428.04.833-.11 1.217v-.004q-.225.618-.72.923a.27.27 0 0 1-.36-.061c-.09-.11-.05-.262.07-.338m-1.99-5.452a65 65 0 0 0-1.25-1.66.27.27 0 0 1 .02-.365c.1-.091.25-.077.34.033.25.308.67.867 1.27 1.675a.28.28 0 0 1-.04.364.23.23 0 0 1-.34-.047m-2.01-2.371a6 6 0 0 1-.46-.405.314.314 0 0 1-.03-.398c.08-.116.23-.128.34-.025.14.138.28.259.41.361a.31.31 0 0 1 .08.391.224.224 0 0 1-.34.076M1002.85 596c1.04-1.094 2.71-.852 4.99.727 1.51 1.032 3.26 2.146 5.27 3.343a15 15 0 0 1 1.61 1.231l-.01-.006c1.1.896 1.67 1.93 1.74 3.1 0 .02 0 .039-.01.059-.3 2.173-1.32 3.045-3.04 2.616q-.825-.204-1.86-.817c-.01-.006-.02-.011-.02-.018-3.98-3.134-6.39-5.301-7.22-6.502l.02.028q-2.505-2.736-1.5-4.132c.08-.111.22-.12.32-.022.1.099.12.268.04.378q-.735 1.016 1.44 3.395c.01.008.02.018.02.028.81 1.157 3.18 3.286 7.12 6.388l-.03-.017q.975.579 1.74.768 2.145.533 2.52-2.205v.058q-.075-1.487-1.53-2.672v-.007c-.44-.384-.95-.779-1.56-1.184l.01.007a101 101 0 0 1-5.28-3.36c-2.09-1.445-3.58-1.704-4.46-.778-.1.096-.24.083-.33-.029-.08-.112-.08-.281.01-.377"/><path fill="#E1B193" d="M1015.92 605.37q.36-.386.93-.331l-.01-.001q.495.024.9.45v.003c.29.299.46.671.52 1.116.06.382-.02.727-.22 1.034 0 .007-.01.014-.01.02-.38.456-.82.561-1.33.314v.003c-.2-.093-.46-.322-.76-.683l.01.004a4 4 0 0 1-.59-.902c-.06-.133-.02-.295.09-.36.11-.066.25-.01.31.124.13.27.29.525.5.766v.004c.25.3.44.482.58.544l.01.003q.48.232.84-.206l-.02.02c.13-.19.18-.399.14-.627a1.34 1.34 0 0 0-.36-.784v.002c-.18-.193-.39-.296-.6-.306l-.01-.001a.71.71 0 0 0-.61.209c-.09.095-.24.079-.32-.035-.09-.115-.09-.285.01-.38m-11.32-9.683c-1.35-1.203-2.45-2.301-3.29-3.293 0-.003 0-.006-.01-.008q-6.671-8.484-7.265-8.955l-.031-.029q-2.128-2.352-4.165-3.788l.003.002q-6.481-4.42-10.522-1.883l.038-.031q-2.815 2.838-2.617 5.69l.001.027q-.063 3.21 2.789 5.504l.01.009q1.98 1.77 5.193 2.796h.004q1.125.38 2.623.712l-.002-.001L998 594.696l.014.004q2.95.843 4.826 2.033c.12.072.16.234.11.362-.06.128-.2.174-.31.103q-1.829-1.156-4.717-1.982l.014.003-10.64-2.257h-.002a26 26 0 0 1-2.667-.723l.003.001q-3.303-1.054-5.359-2.892l.01.008q-3.067-2.468-2.998-5.972l.001.027q-.216-3.113 2.765-6.117a.3.3 0 0 1 .038-.031q4.266-2.679 10.972 1.898l.004.002q2.08 1.467 4.247 3.862l-.03-.028q.638.508 7.359 9.039l-.01-.007c.83.974 1.91 2.055 3.23 3.242.11.091.13.258.06.373-.08.115-.22.135-.32.043"/><path fill="#E1B193" d="M977.865 580.359q4.267-1.497 8.976 1.185l-.059-.023q1.4.321 13.858 11.355l-.01-.013q1.995 1.486 3.66 2.226c.12.053.19.206.15.342s-.17.205-.29.152c-1.15-.506-2.4-1.265-3.76-2.277 0-.004-.01-.009-.01-.013q-12.376-10.956-13.665-11.251a.2.2 0 0 1-.059-.024q-4.543-2.588-8.64-1.151c-.119.042-.249-.038-.29-.179-.042-.14.021-.288.139-.329"/><path fill="#E1B193" d="M978.125 579.736q1.19 3.548 5.771 6.395l-.003-.002q4.191 2.533 6.117 3.449l-.007-.003q3.781 1.646 6.772 3.222l-.024-.011c3.799 1.453 5.849 2.316 6.139 2.592q.15.147.12.335c0 .009-.01.018-.01.026-.04.134-.16.194-.28.136a.31.31 0 0 1-.14-.348v.022c-.02.1 0 .178.05.232-.24-.23-2.23-1.062-5.98-2.493l-.024-.01q-2.976-1.569-6.742-3.208l-.007-.003q-1.946-.926-6.156-3.47l-.002-.002q-4.744-2.947-6.001-6.699c-.047-.139.007-.287.119-.331.113-.045.242.032.288.171m36.205 25.899c.15-.22.23-.506.23-.858v-.004q0-.528-.24-1.029v.008c-.33-.619-1.13-1.365-2.41-2.24-.11-.077-.14-.24-.07-.365.08-.125.23-.165.34-.088 1.34.919 2.19 1.723 2.56 2.413 0 .003 0 .006.01.008.2.414.3.842.29 1.285v-.004q0 .71-.33 1.186a.23.23 0 0 1-.34.059.29.29 0 0 1-.04-.371m-3.49-4.932a69 69 0 0 0-1.63-1.286.33.33 0 0 1-.1-.383c.06-.128.2-.163.31-.08.31.235.86.668 1.64 1.299.11.088.15.261.09.385-.07.125-.2.154-.31.065m-2.51-1.767a5 5 0 0 1-.54-.262c-.12-.071-.19-.248-.16-.396.04-.148.17-.211.29-.14q.255.143.48.234c.13.051.21.219.19.375s-.14.24-.26.189M772.343 407.387q-.871 2.08-4.897 1.342a101 101 0 0 0-6.09-.874 15 15 0 0 1-1.926-.448l.009.002q-2.002-.54-2.712-2.062a.2.2 0 0 1-.019-.053q-.736-3.075 1.899-3.535.834-.145 2.014-.013l.03.005q7.211 1.8 9.022 2.898l-.031-.016q3.295 1.432 2.859 3.073a.215.215 0 0 1-.291.147.275.275 0 0 1-.166-.321q.317-1.194-2.548-2.44-.016-.006-.031-.016-1.745-1.057-8.882-2.839l.03.005q-1.115-.124-1.888.01-2.176.38-1.558 2.962l-.018-.053q.601 1.288 2.368 1.765l.009.003q.808.253 1.864.433l-.012-.002q3.442.4 6.107.877h.001q3.683.676 4.42-1.084c.05-.122.19-.168.31-.104a.274.274 0 0 1 .127.338"/><path fill="#E1B193" d="M756.873 404.271q-.208.49-.746.664l.009-.003q-.47.175-1.002-.039l-.003-.002a1.83 1.83 0 0 1-.879-.784 1.33 1.33 0 0 1-.16-1.007l.007-.023q.282-.834 1.121-.807h-.007q.34 0 .949.304l-.005-.003q.486.231.865.567c.105.094.127.253.049.354-.079.102-.228.108-.334.014a3 3 0 0 0-.736-.481l-.005-.002q-.504-.253-.732-.252l-.008-.001q-.525-.016-.706.518l.006-.024a.82.82 0 0 0 .094.613q.231.392.615.551l-.002-.001q.362.147.672.03l.009-.003a.75.75 0 0 0 .49-.427c.051-.121.191-.164.312-.097a.28.28 0 0 1 .127.341m13.959 4.088q2.52.798 4.225 1.616l.008.005q9.22 4.872 9.939 5.055l.038.013q2.814 1.242 5.217 1.705h-.004q7.594 1.344 10.445-2.518l-.025.043q1.606-3.64.408-6.092l-.011-.025q-1.082-2.874-4.548-3.775l-.013-.004q-2.47-.783-5.819-.414h-.003q-1.18.11-2.69.413H788l-10.687 2.232-.015.003q-3.038.425-5.21.117a.27.27 0 0 1-.223-.28c.006-.137.118-.232.248-.213q2.11.297 5.086-.118l-.014.002 10.688-2.232.001-.001a27 27 0 0 1 2.735-.419h-.003q3.444-.38 6.007.434l-.012-.004q3.727.97 4.909 4.109l-.01-.024q1.308 2.677-.393 6.531a.3.3 0 0 1-.025.043q-3.009 4.075-10.867 2.683l-.004-.001q-2.455-.474-5.32-1.738l.038.014q-.774-.197-10.047-5.097l.009.004q-1.673-.803-4.16-1.59a.273.273 0 0 1-.18-.311.216.216 0 0 1 .281-.166"/><path fill="#E1B193" d="M801.117 411.326q-3.432 3.027-8.76 2.52l.063-.002q-1.414.272-16.914-4.563l.02.005q-2.382-.526-4.199-.516c-.13.001-.245-.11-.256-.247s.083-.248.213-.249q1.868-.011 4.3.527l.02.005q15.389 4.8 16.694 4.549a.2.2 0 0 1 .062-.003q5.14.489 8.436-2.417c.096-.085.245-.066.333.043.089.108.083.264-.012.348"/><path fill="#E1B193" d="M801.097 411.982q-2.369-2.676-7.635-3.379h.003q-4.794-.58-6.909-.627h.007q-4.098.044-7.437-.164h.026q-6.073.336-6.625.143-.197-.07-.228-.251l-.003-.026c-.011-.134.084-.238.212-.232a.28.28 0 0 1 .249.233q-.025-.145-.136-.184.463.162 6.447-.169h.025q3.324.207 7.405.163h.007q2.138.048 6.953.63l.003.001q5.455.728 7.957 3.557c.093.105.096.259.007.342-.088.085-.235.068-.328-.037m-42.847-8.578q-.094.382.094.853l.001.003q.181.471.588.818l-.006-.006q.791.627 3.034 1.03c.131.024.218.157.194.297s-.149.235-.28.211q-2.355-.424-3.238-1.122l-.006-.006a2.5 2.5 0 0 1-.733-1.023l.001.004q-.25-.631-.116-1.183c.034-.139.166-.222.295-.188.129.035.206.175.172.312m5.002 2.987q1.416.37 1.969.494a.3.3 0 0 1 .225.302.205.205 0 0 1-.258.193 68 68 0 0 1-1.987-.499.3.3 0 0 1-.216-.308c.014-.136.133-.217.267-.182m2.962.57q.272-.01.587.02c.14.014.269.143.289.289s-.08.253-.22.239a4 4 0 0 0-.523-.018c-.137.005-.277-.11-.314-.256s.044-.269.181-.274m415.496-289.678-.01-.002v-.019c0-.007-.01-.014-.01-.02v-.033c0-.013 0-.027.01-.041 0-.013 0-.026.01-.038-.01.017-.01.03-.01.039 0 .013-.01.026-.01.039 0 0 0 .007.01.019v.042zm14.7 1.844v.006c-.2.378-1.05.418-2.57.121q-1.47-.622-3.48-1.789-.96-.177-1.02.038c-.4.462-.26 1.047.41 1.755l4.74 2.843c.67.617.96 1.046.86 1.287-.22.269-1.18.391-2.86.364-.37-.117-1.45-.734-3.25-1.85q-.705-.224-.96-.103-.795.375-.12 1.178l3.67 2.324q1.065.89 1.14 1.195c.16 1.178-1.25 1.127-4.22-.152-2.1-1.202-3.33-1.998-3.68-2.391-.43-.662-.68-1.118-.74-1.367-.47-2.522-.74-3.771-.8-3.749q-.375-.813-1.17-1.743c-1.6-1.036-3.94-2.387-7.04-4.054-3.8-1.756-6.54-3.114-8.21-4.073-1.56-1.244-2.15-2.44-1.78-3.588-.16-.381.43-1.014 1.78-1.9.62-.156 1.09-.153 1.38.012.39.182.99.582 1.81 1.197 3.85 3.511 6.58 5.87 8.2 7.077 1.33.969 2.26 1.622 2.8 1.957.76.481 1.75 1.042 2.96 1.683l-.07-.005.51.344c.15.053.26.074.31.061 1.08-.496 1.87-.775 2.36-.839.79-.009 1.37.042 1.75.152q2.91 1.046 3.78 1.534 3.285 1.948 3.51 2.475m.48.093v-.036q.045-.376-.12-.548c-.33-.281-1.18-.9-2.57-1.856a41 41 0 0 0-4.36-2.013c-.74-.236-1.4-.354-1.96-.353-.96.063-1.91.333-2.84.809l-2.09-1.126c-2.55-1.65-4.17-2.761-4.87-3.333-2.08-1.664-4.65-3.894-7.72-6.689q-.9-.668-1.62-1.013c-1.8-.581-3.12.238-3.95 2.456-.06.767-.04 1.285.09 1.556.64 1.105 1.29 1.868 1.92 2.29.28.187.84.504 1.69.95l9.26 4.624q2.49 1.373 4.32 2.687c.6.659.95 1.186 1.07 1.578.08.247.33 1.469.74 3.667.06.169.27.536.62 1.1 1.76 1.642 3.25 2.679 4.48 3.113 1.02.409 2.19.665 3.52.767.59-.178.91-.528.93-1.05q-.105-.902-.66-1.439c-.4-.402-1.78-1.28-4.12-2.633q-.42-.373-.27-.42c.07-.058.29-.033.65.075q1.74 1.257 3.84 1.966c2.06-.124 3.04-.405 2.92-.843.1-.395-.12-.91-.65-1.544l-.57-.439-4.51-2.683c-.37-.357-.52-.661-.42-.912.13-.039.29-.034.49.012 2.27 1.273 3.7 1.954 4.27 2.04.57.088 1.04.095 1.43.023.62-.216.97-.477 1.06-.783"/><path fill="#E1B193" d="m1169.57 110.655-.03-.015c-.27-.142-.45-.248-.53-.316l-2.05.517c-.12.022-.35.029-.68.023q-.27-.018-.78-.172a2.2 2.2 0 0 1-.52-.303c-.41-.309-.58-.915-.52-1.818.06-.202.15-.379.29-.529q.3-.267.39-.297c.11-.056.22-.106.34-.149-.16-.273-.23-.432-.2-.477a3 3 0 0 0-.46.26l-.19.155c-.11.109-.22.229-.3.36q-.39.666-.33 1.325c0 .423.12.791.37 1.102l.14.182.28.245c.2.13.41.246.62.348q.525.3 1.5.233c1.22-.329 2.11-.554 2.66-.674m30.38-5.628.01-.058c.19-1.68-.35-3.026-1.61-4.038q-2.175-1.936-6.45-1.927c-.72.09-1.41.26-2.08.514q-1.005.381-1.95 1.005l-.92.687c-1.21.997-2.34 2.321-3.37 3.971-2.64.384-6.35.64-11.12.769q.27.192.57.51c5.16-.199 8.66-.431 10.48-.696l.26-.079c.84-1.27 1.86-2.494 3.08-3.671.64-.629 1.48-1.215 2.51-1.76l1.34-.496 1.5-.24c.32-.01.96.039 1.9.145q.555.085 1.05.222c1.53.507 2.69 1.203 3.46 2.085.49.506.81 1.232.95 2.178-.21 1.201-.63 2.224-1.27 3.07-.9 1.036-1.51 1.62-1.82 1.752-.49.343-1.04.654-1.64.935-1.4.553-2.66.795-3.76.727-.82-.063-1.44-.15-1.88-.262l-5.2-1.836c-1.01-.271-1.79-.441-2.35-.511-.71-.069-1.52-.077-2.42-.021q-.945.01-3.87.5l.49.443c2.42-.456 4.4-.579 5.96-.371.63.099 1.41.284 2.35.557.81.265 2.13.753 3.97 1.466l1.13.327q.9.225 2.49.224c1.39-.142 2.34-.343 2.86-.603.72-.276 1.4-.646 2.05-1.107 1.41-1.285 2.23-2.156 2.47-2.613.45-.643.73-1.242.83-1.798"/><path fill="#E1B193" d="M1185.19 107.57q.705.618 1.89 1.139l-.01-.005c.61.226 1.46.406 2.57.539.14.017.23.152.2.302-.03.149-.16.256-.3.239q-1.71-.207-2.67-.564c-.01-.002-.01-.003-.01-.005-.84-.367-1.51-.772-2.02-1.215-.1-.092-.11-.264-.01-.382.09-.119.26-.14.36-.048m6.15 1.468c.23-.008.43-.028.61-.061l.01-.001c.14-.022.47-.102.98-.239.13-.036.28.057.32.207s-.04.302-.18.338q-.78.212-1.02.249v-.001c-.2.037-.43.06-.68.068-.14.005-.27-.117-.28-.271s.1-.284.24-.289m4.87-1.782a.3.3 0 0 1 .05-.084c.04-.044.18-.193.43-.446v.002q.075-.068.27-.297c.1-.109.25-.118.35-.021s.1.263 0 .372c-.14.159-.23.264-.28.316l-.01.002c-.24.243-.37.381-.4.414a.15.15 0 0 0 .04-.064c-.06.136-.2.202-.33.148-.12-.054-.18-.207-.12-.342m-28.62-2.71c.57.132 1.32.49 2.26 1.074 0 .002.01.004.01.006 1.07.733 2.18 1.577 3.34 2.531.1.087.12.255.03.373a.24.24 0 0 1-.35.054 48 48 0 0 0-3.3-2.507l.01.006q-1.335-.835-2.13-1.015c-.13-.031-.21-.173-.18-.317.04-.144.17-.236.31-.205m7.28 5.249c.17.1.71.585 1.63 1.457.1.096.1.27-.01.39-.1.119-.27.138-.37.041-.89-.848-1.41-1.312-1.55-1.394-.12-.071-.15-.238-.07-.375.09-.136.25-.189.37-.119m10.05 8.738c.02.087.02.235.02.445v.011l-.06.952v-.002q-.03.448-.03.536v.006c0 .258 0 .464.01.621.02.137-.07.255-.2.264-.12.009-.24-.095-.25-.231-.02-.178-.02-.405-.02-.683v.006q0-.103.03-.568v-.001l.06-.952v.012c.01-.17 0-.28-.01-.328-.02-.135.05-.265.18-.289.12-.024.24.066.27.201m.03 3.762q.105.253.21.436l.01.002q.135.24.48.638c.09.107.07.283-.05.394-.11.11-.28.114-.37.007a6 6 0 0 1-.53-.697v.003a3.5 3.5 0 0 1-.25-.512c-.05-.133.02-.303.16-.378.13-.075.29-.027.34.107M28.208 648.95h-.003l-.018-.002-.019-.005a.1.1 0 0 1-.03-.011l-.032-.022.001-.001q.016.011.033.019l.016.007.012.005.013.004.013.003zm7.862-13.571.005.004q.354.524-.999 2.558-1.156 1.17-3.004 2.64-.558.85-.406 1.012.33.873 1.66.339l4.43-3.411q1.216-.594 1.458-.297.198.497-.92 2.95-.383.459-2.955 2.384-.492.591-.5.893-.025.941.944.617l3.534-2.588q1.21-.662 1.502-.614 1.59.524-1.94 4.058-2.876 2.317-3.595 2.574-1.118.212-1.475.147-3.496-.92-3.506-.816-.85.026-1.974.4-2.339 1.677-6.44 5.146-4.671 4.449-6.96 6.283-2.58 1.494-3.793.212-.588-.004-.844-2.539.206-1.02.603-1.344.481-.453 1.787-1.26 6.925-3.4 9.49-4.99 2.085-1.333 2.854-1.904a52 52 0 0 0 2.69-2.172l-.031.057.508-.348q.165-.188.185-.278.067-1.898.303-2.66.494-1.152.879-1.643 2.128-2.39 2.916-3.038 3.051-2.373 3.594-2.372m.285-.428-.03-.022q-.301-.192-.513-.114-.57.303-2.67 1.719a44 44 0 0 0-3.57 3.404q-.78.94-1.14 1.765a8.8 8.8 0 0 0-.532 3.111l-1.85 1.568q-3.729 2.68-4.9 3.329-3.446 1.988-8.96 4.7-.949.591-1.55 1.149-1.894 2.265.381 4.897.93.588 1.35.579 1.815-.24 2.76-.907.412-.278 1.523-1.238l7.876-7.073q2.23-1.853 4.124-3.084 1.217-.446 1.788-.365.37.031 3.416.829.252.024 1.192-.129 3.211-1.532 4.552-3.054 1.17-1.225 2.155-3.106.158-.988-.484-1.363-.807-.28-1.499.035-.768.333-3.993 2.908-.492.244-.47.082-.024-.145.342-.6a15.1 15.1 0 0 0 3.309-2.916q1.17-3.1.538-3.205-.434-.405-1.581-.024l-.614.367-4.199 3.259q-.694.326-.953.029.037-.216.22-.474 3.08-2.523 3.555-3.302.476-.775.631-1.384.127-1.048-.204-1.37"/><path fill="#E1B193" d="m17.408 657.976-.027.024q-.354.307-.493.383l-.441 2.217a5 5 0 0 1-.274.679 4.5 4.5 0 0 1-.478.683q-.231.24-.482.387-.653.4-1.755-.272a1.2 1.2 0 0 1-.323-.509q-.1-.399-.083-.507a3 3 0 0 1 .02-.397q-.45.066-.49-.002-.013.294.025.555l.049.251q.062.243.172.452.399.656.977.887.537.27 1.09.104l.214-.06.326-.166q.293-.211.56-.457.481-.393.84-1.369.372-2.003.572-2.883m8.279-32.056-.045-.033q-2.005-1.35-4.102-.14-2.568 1.301-4.393 5.476-.346 1.104-.457 2.248t.014 2.328l.183 1.195q.484 2.409 1.908 4.978-1.213 4.11-4.118 11.179.276-.179.671-.332 3.072-7.693 3.91-10.531l.046-.292q-1.071-2.034-1.782-4.561-.382-1.342-.408-3.201l.158-1.524.436-1.558q.2-.485.94-1.797.308-.502.636-.929 1.632-1.926 3.244-2.49.96-.404 2.247-.004 1.388 1.071 2.049 2.544.732 1.98.697 2.526.12.936.087 1.995-.202 2.407-1 3.985-.604 1.154-1.024 1.714l-3.782 4.301q-.992 1.306-1.438 2.074a18.5 18.5 0 0 0-1.058 2.358q-.394.919-1.235 3.986l.583-.288q.979-3.83 2.242-5.975.528-.853 1.477-2.056.859-1.02 2.943-3.256l.76-.963q.574-.774 1.258-2.339.71-2.115.716-3.043.112-1.23-.054-2.478-.722-2.878-1.148-3.52-.526-1.064-1.161-1.577"/><path fill="#E1B193" d="M21.502 641.415q.82-.42 1.773-1.362l-.01.009q.677-.743 1.555-2.275c.075-.129.228-.161.343-.071a.315.315 0 0 1 .073.395q-.908 1.582-1.622 2.368l-.009.01q-1.005.994-1.888 1.447c-.123.063-.271-.003-.33-.146-.06-.144-.008-.311.115-.375m3.874-5.376q.14-.344.214-.629l.002-.006q.063-.222.218-1.057a.273.273 0 0 1 .31-.223c.145.025.24.164.212.312a16 16 0 0 1-.23 1.108l.002-.006a6 6 0 0 1-.237.699.27.27 0 0 1-.348.154.27.27 0 0 1-.143-.352m.587-5.514a.3.3 0 0 1-.049-.086q-.03-.084-.192-.613l.002.003a12 12 0 0 0-.137-.388c-.05-.14.009-.297.133-.351.123-.054.265.017.316.156q.111.308.144.414l.001.003q.154.507.177.569a.3.3 0 0 1-.053.32c-.1.098-.252.086-.343-.027M11.4 657.316q.536-.756 1.877-1.754l.009-.007a48 48 0 0 1 3.568-2.181c.12-.067.268-.012.33.122.063.135.016.298-.104.365a48 48 0 0 0-3.533 2.161l.008-.007q-1.279.95-1.768 1.642a.228.228 0 0 1-.345.041.29.29 0 0 1-.043-.382m7.557-4.88q.235-.186 1.928-.972c.125-.059.271.019.327.173s-.002.326-.126.384q-1.649.765-1.842.919c-.11.087-.265.045-.345-.094s-.053-.323.058-.41m11.686-6.093q.121.031.383.17l.01.006.777.464-.002-.001q.367.216.442.253l.005.003q.323.173.53.251a.24.24 0 0 1 .136.311.235.235 0 0 1-.303.146 5 5 0 0 1-.583-.275l.005.003a12 12 0 0 1-.468-.268l-.001-.001-.777-.463.01.005a1.7 1.7 0 0 0-.282-.131.24.24 0 0 1-.168-.293.24.24 0 0 1 .286-.18m3.19 1.568q.256.01.459-.023l.003-.001q.265-.039.745-.199c.129-.043.268.052.312.212s-.026.325-.154.368a5 5 0 0 1-.814.215h.004a2.6 2.6 0 0 1-.54.028c-.136-.006-.25-.144-.254-.31s.103-.296.239-.29M1123.58 470.102c.63-.741 1.1-1.111 1.39-1.11l-.02.003q.825-.163 1.65.459v.002q1.545 1.222.57 3.409v.003a9 9 0 0 1-1.59 2.346v-.002c-.6.664-1.07.943-1.43.837l.01.002c-.89-.212-1.57-.665-2.05-1.357l-.03-.06c-.17-.654.01-1.47.55-2.446.04-.071.12-.085.18-.031.07.053.09.154.05.224-.5.898-.67 1.626-.52 2.184l-.03-.06c.43.626 1.06 1.037 1.87 1.232l.01.002c.27.078.66-.178 1.19-.77l.01-.002a8.9 8.9 0 0 0 1.54-2.276v.004c.57-1.287.42-2.28-.46-2.978v.002c-.48-.367-.97-.503-1.45-.408l-.02.002c-.23-.001-.63.342-1.22 1.027-.05.06-.13.054-.19-.011-.05-.066-.06-.167-.01-.227"/><path fill="#E1B193" d="M1122.89 471.542q.105-.19.18-.382c.03-.078.11-.106.18-.063s.1.14.07.218a2 2 0 0 1-.21.428c-.04.069-.12.079-.19.024-.06-.056-.08-.157-.03-.225m1.07 1.526c.19-.214.51-.113.7.133.2.246.26.629.06.842-.2.214-.52.113-.71-.133s-.25-.629-.05-.842m.19.245c-.06.065-.07.235.05.392s.27.157.33.093c.06-.065.07-.234-.05-.391-.13-.157-.27-.158-.33-.094m.78-2.245c.27-.298.72-.225 1 .134s.31.893.04 1.191c-.28.298-.73.225-1.01-.134s-.31-.894-.03-1.191m.19.245c-.16.173-.16.503.03.74.19.238.46.267.62.094.16-.172.16-.502-.03-.739-.18-.238-.46-.267-.62-.095m-.65 4.573q-3.525 3.807-3.66 4.097a.15.15 0 0 0-.03-.166c-.04-.055-.09-.072-.13-.05v-.001c.05-.03.13-.007.17.055s.04.147 0 .202c-.62.873-1.14 1.914-1.57 3.125v-.004a5.5 5.5 0 0 0-.28 1.974l-.01-.043c.71 2.535.99 4.037.85 4.505l.01-.036q-.165 1.688-1.14 2.99v.002c-1.94 2.493-4.35 2.948-7.22 1.365 0-.001 0-.002-.01-.004-1.57-.979-2.71-2.461-3.44-4.443v-.005c-.7-2.07-.61-3.899.26-5.486v.003q.885-1.732 3.51-2.606c.74-.253 1.42-.398 2.03-.437h.02c1.75.15 2.7.201 2.84.153q-.03.014-.06.071c.02-.049.06-.083.1-.09.49-.076.91-.247 1.27-.514v-.003c1.24-.859 2.61-2.94 4.13-6.242a.115.115 0 0 1 .18-.048c.07.048.09.147.06.221-1.54 3.348-2.94 5.465-4.22 6.349l.01-.003c-.39.29-.84.476-1.37.558l.1-.091a.16.16 0 0 1-.1.101q-.255.086-2.94-.142h.02q-.885.055-1.98.426c-1.68.562-2.81 1.39-3.37 2.483v.003q-1.23 2.251-.24 5.201v-.005q1.035 2.857 3.3 4.266l-.01-.004c2.76 1.518 5.06 1.082 6.92-1.307v.002q.93-1.235 1.08-2.829v-.035q.195-.602-.84-4.296c-.01-.014-.01-.029-.01-.044q-.045-1.039.3-2.1v-.003c.44-1.237.97-2.303 1.61-3.198l.17.257c0 .002-.01.004-.01.006q-.105.05-.18-.044a.19.19 0 0 1-.02-.216c.1-.219 1.34-1.608 3.71-4.166.05-.057.14-.048.19.02.06.068.06.169 0 .226"/><path fill="#E1B193" d="M1117.53 488.222c-.12-.626-.28-1.136-.47-1.528v.001q-.315-.609-.87-1.239c-.54-.6-1.32-.995-2.36-1.184-.08-.014-.13-.096-.13-.183.01-.088.07-.147.14-.134q1.65.3 2.52 1.278v-.001q.6.666.93 1.32v.001c.21.423.37.966.5 1.626.02.088-.02.169-.1.181-.07.012-.14-.05-.16-.138m-4.43-2.786c-.24.046-.6.271-1.09.678l.01-.004q-.465.42-.72.954v-.004c-.32.74-.37 1.496-.16 2.269.02.086-.02.172-.09.192s-.14-.034-.17-.12a3.74 3.74 0 0 1 .18-2.51v-.004q.285-.584.78-1.038v-.003c.52-.432.92-.674 1.19-.727.08-.013.15.046.17.134.02.087-.03.169-.1.183M64.051 13.844q.946-1.112 1.388-1.11l-.022.002q.833-.162 1.652.46l.003.002q1.546 1.22.567 3.409l-.001.003a9.2 9.2 0 0 1-1.592 2.345l.002-.002q-.894.997-1.43.838l.006.001q-1.33-.318-2.048-1.357a.2.2 0 0 1-.027-.06q-.262-.981.548-2.446c.039-.07.122-.084.185-.03a.19.19 0 0 1 .045.224q-.744 1.346-.521 2.183l-.028-.06q.648.94 1.874 1.232l.007.002q.397.118 1.194-.77l.002-.002a8.9 8.9 0 0 0 1.544-2.275l-.001.003q.863-1.931-.46-2.977l.002.002q-.725-.551-1.454-.409l-.022.003q-.338-.002-1.213 1.027c-.05.06-.136.054-.191-.012s-.06-.167-.009-.226"/><path fill="#E1B193" d="M63.354 15.283a2.5 2.5 0 0 0 .187-.382c.03-.077.109-.105.177-.062.069.042.1.14.07.217a3 3 0 0 1-.208.429c-.042.068-.125.079-.188.023a.186.186 0 0 1-.038-.225m1.07 1.527c.196-.214.516-.113.709.133.193.245.253.628.056.842-.196.213-.516.113-.709-.133s-.253-.63-.056-.843m.193.245c-.06.064-.07.234.052.391.124.157.268.158.328.093.059-.064.07-.234-.053-.39-.124-.158-.268-.158-.327-.094m.777-2.244c.274-.299.725-.226 1.007.133.282.36.308.894.034 1.191s-.725.225-1.007-.134-.308-.893-.034-1.19m.193.245c-.159.172-.156.502.03.74.187.237.466.266.625.094s.156-.502-.03-.74c-.187-.237-.466-.267-.625-.094m-.645 4.573q-3.527 3.807-3.664 4.096.038-.08-.03-.165-.064-.083-.133-.05l.002-.001c.056-.03.126-.008.168.054a.18.18 0 0 1 .004.203q-.93 1.309-1.57 3.124l.001-.003a5.5 5.5 0 0 0-.281 1.974l-.007-.044q1.064 3.803.844 4.505l.007-.035q-.157 1.687-1.135 2.99l-.002.001q-2.911 3.74-7.217 1.366l-.007-.004q-2.355-1.47-3.44-4.444v-.004q-1.052-3.106.256-5.487l-.002.004q.89-1.733 3.51-2.606 1.119-.38 2.032-.438h.017q2.637.225 2.844.154-.039.013-.057.07c.016-.049.052-.083.097-.09a2.74 2.74 0 0 0 1.264-.514l.004-.003q1.857-1.288 4.131-6.242a.117.117 0 0 1 .182-.048.19.19 0 0 1 .059.222q-2.305 5.022-4.219 6.349l.004-.003q-.571.435-1.365.557l.098-.09a.15.15 0 0 1-.1.1q-.252.087-2.936-.142h.017q-.885.057-1.975.427-2.531.844-3.373 2.482l-.001.004q-1.236 2.25-.239 5.2l-.001-.004q1.041 2.856 3.3 4.265l-.006-.004q4.128 2.277 6.917-1.306l-.002.002a5.45 5.45 0 0 0 1.077-2.83l.007-.035q.188-.601-.846-4.295a.2.2 0 0 1-.007-.044 5.9 5.9 0 0 1 .298-2.1l.001-.004q.653-1.856 1.608-3.198l.173.257-.013.007q-.105.05-.177-.044-.076-.098-.02-.216.156-.33 3.71-4.167c.053-.056.138-.047.192.02.053.069.053.17 0 .227"/><path fill="#E1B193" d="M57.998 31.964q-.183-.94-.472-1.529v.002a5.7 5.7 0 0 0-.872-1.24q-.801-.9-2.357-1.184c-.075-.013-.131-.095-.127-.183.004-.087.068-.147.142-.133q1.647.3 2.517 1.277.599.666.926 1.32.313.636.506 1.627c.017.088-.028.168-.1.18s-.146-.05-.163-.137m-4.428-2.787q-.358.069-1.089.678l.004-.003a3 3 0 0 0-.714.954l.002-.005a3.3 3.3 0 0 0-.166 2.27c.024.086-.014.172-.085.192-.07.02-.147-.034-.17-.12a3.66 3.66 0 0 1 .178-2.51l.002-.004q.278-.585.776-1.038l.004-.004q.776-.646 1.19-.726c.073-.014.147.046.165.133.02.088-.024.17-.096.183m255.447 629.234q-1.023-1.005-1.013-1.45l.001.022q-.137-.846.459-1.644l.002-.002q1.171-1.501 3.2-.415l.002.001a9 9 0 0 1 2.166 1.713l-.001-.002q.916.947.758 1.48l.001-.006q-.32 1.326-1.306 2.001a.2.2 0 0 1-.056.025q-.923.219-2.278-.665c-.066-.042-.077-.127-.026-.189a.16.16 0 0 1 .21-.034q1.247.812 2.034.626l-.056.025q.89-.61 1.185-1.832l.002-.007q.117-.395-.699-1.238l-.002-.002a8.7 8.7 0 0 0-2.101-1.662l.003.001q-1.79-.958-2.794.327l.002-.002q-.528.705-.408 1.446l.002.022q-.008.34.94 1.271c.054.053.048.139-.015.192-.062.052-.157.051-.212-.002"/><path fill="#E1B193" d="M310.352 659.181a2.3 2.3 0 0 0-.354-.206.124.124 0 0 1-.056-.181.165.165 0 0 1 .205-.061q.2.093.397.231c.064.044.072.129.019.189a.164.164 0 0 1-.211.028m1.447-1.009c-.197-.208-.097-.525.137-.709s.593-.226.789-.018.096.526-.137.709c-.234.183-.593.226-.789.018m.233-.183c.059.063.218.082.367-.035s.152-.263.093-.326-.218-.081-.367.036-.152.262-.093.325m-2.088-.888c-.273-.29-.197-.741.144-1.009s.841-.268 1.115.021c.273.29.197.742-.144 1.009s-.841.269-1.115-.021m.233-.183c.159.168.468.18.693.003.226-.176.258-.456.099-.625-.158-.168-.467-.18-.692-.003-.226.177-.258.457-.1.625m4.267.863q3.5 3.73 3.768 3.881-.074-.042-.155.022-.079.062-.049.132l-.001-.001c-.028-.058-.005-.128.054-.168a.16.16 0 0 1 .189.005q1.209 1 2.896 1.727l-.004-.001q.932.375 1.842.375l-.041.005q3.576-.897 4.23-.644l-.033-.008a5.34 5.34 0 0 1 2.776 1.282l.002.001q3.447 3.108 1.15 7.338l-.004.007q-1.416 2.306-4.218 3.261l-.004.002q-2.923.916-5.128-.512l.003.002q-1.605-.977-2.376-3.659-.335-1.144-.373-2.067l.001-.017q.256-2.647.193-2.86.012.04.065.061a.13.13 0 0 1-.082-.102 3 3 0 0 0-.459-1.298l-.003-.004q-1.171-1.932-5.766-4.451a.125.125 0 0 1-.042-.186.164.164 0 0 1 .208-.049q4.657 2.555 5.865 4.545l-.002-.005q.396.597.497 1.402l-.083-.102a.15.15 0 0 1 .092.105q.077.258-.184 2.952v-.017q.037.894.364 2.01.744 2.59 2.263 3.514l.003.002q2.085 1.35 4.861.48l-.004.001q2.69-.918 4.049-3.129l-.004.006q2.203-4.056-1.1-7.032l.001.001a5.07 5.07 0 0 0-2.627-1.215.1.1 0 0 1-.033-.009q-.559-.216-4.034.655a.2.2 0 0 1-.041.005 5.2 5.2 0 0 1-1.959-.397l-.003-.001q-1.725-.745-2.964-1.769l.244-.162.006.014q.044.107-.045.176-.092.072-.202.01-.305-.173-3.832-3.932c-.052-.056-.042-.141.022-.192.065-.05.159-.046.211.01"/><path fill="#E1B193" d="M325.7 665.847q-.866.106-1.404.328h.002a4.6 4.6 0 0 0-1.13.704q-.819.66-1.054 2.037c-.012.066-.086.112-.167.102-.081-.009-.137-.07-.126-.135q.25-1.457 1.138-2.175.604-.495 1.203-.747l.001-.001q.58-.24 1.493-.351c.081-.01.156.035.168.101.012.065-.043.127-.124.137m-2.523 3.835q.057.365.615 1.129l-.003-.004q.384.483.879.764l-.004-.002q1.03.54 2.12.271c.081-.02.161.023.178.095.018.072-.034.147-.115.167q-1.21.298-2.345-.297l-.003-.002a3.3 3.3 0 0 1-.958-.83l-.003-.004q-.592-.81-.658-1.233c-.012-.074.045-.145.127-.16s.158.032.17.106m9.896-533.489q1.23-1.455 1.804-1.453l-.028.002q1.082-.213 2.144.598l.004.002q2.004 1.595.731 4.455l-.002.004a12 12 0 0 1-2.072 3.068l.002-.003q-1.161 1.305-1.858 1.097l.008.002q-1.727-.413-2.657-1.769a.3.3 0 0 1-.035-.078q-.338-1.282.716-3.198c.05-.092.159-.11.241-.041.082.07.108.201.058.293q-.969 1.761-.681 2.855l-.036-.078q.84 1.226 2.432 1.606l.008.003q.516.153 1.552-1.009l.002-.003a11.6 11.6 0 0 0 2.01-2.976l-.002.004q1.125-2.525-.592-3.89l.003.002q-.942-.718-1.887-.531-.014.004-.029.003-.438 0-1.577 1.346c-.066.077-.177.07-.249-.015-.071-.086-.075-.219-.01-.296"/><path fill="#E1B193" d="M332.163 138.075q.149-.249.243-.499c.039-.102.142-.139.231-.083s.13.183.091.285a4 4 0 0 1-.272.56c-.054.09-.163.104-.243.031a.245.245 0 0 1-.05-.294m1.389 1.993c.256-.28.67-.149.92.172.251.321.328.822.072 1.101-.255.279-.67.149-.92-.173-.251-.321-.328-.821-.072-1.1m.25.32c-.078.085-.092.306.068.511s.347.206.424.122c.078-.085.092-.307-.068-.512s-.347-.205-.424-.121m1.014-2.936c.356-.39.942-.295 1.307.173.365.469.398 1.167.041 1.557-.356.389-.941.295-1.307-.174-.365-.468-.397-1.167-.041-1.556m.25.32c-.207.226-.204.657.038.967.241.31.604.348.811.122.206-.225.203-.657-.038-.967s-.605-.348-.811-.122m-.847 5.978q-4.587 4.982-4.765 5.361.048-.105-.038-.217-.084-.108-.173-.065l.002-.001c.072-.04.164-.01.218.071s.057.192.005.264q-1.21 1.713-2.045 4.087l.002-.004a7.3 7.3 0 0 0-.369 2.58l-.009-.057q1.375 4.968 1.089 5.886l.009-.046q-.207 2.205-1.48 3.909l-.002.002q-3.787 4.894-9.375 1.799l-.009-.005q-3.055-1.917-4.458-5.801l-.002-.006q-1.36-4.056.343-7.17l-.002.004q1.158-2.265 4.563-3.412 1.452-.499 2.639-.576h.021q3.424.288 3.694.195-.05.017-.074.093c.02-.065.068-.11.126-.119q.957-.15 1.643-.674l.005-.004q2.414-1.687 5.375-8.165c.045-.098.151-.126.236-.064.087.063.12.193.076.29q-3.002 6.567-5.489 8.306l.005-.004q-.744.569-1.774.731l.127-.119a.2.2 0 0 1-.13.132q-.327.112-3.811-.18h.021q-1.148.075-2.565.561-3.288 1.107-4.384 3.251l-.003.005q-1.609 2.944-.318 6.796l-.002-.005q1.347 3.73 4.278 5.568l-.009-.005q5.357 2.967 8.986-1.721l-.002.002q1.207-1.615 1.402-3.699a.2.2 0 0 1 .01-.046q.244-.787-1.091-5.613a.3.3 0 0 1-.009-.057q-.06-1.358.391-2.745l.001-.004q.852-2.427 2.094-4.183l.223.335-.016.009q-.136.064-.23-.057-.099-.127-.025-.283.203-.43 4.825-5.452c.069-.074.18-.062.249.027.068.088.069.22.001.295"/><path fill="#E1B193" d="M325.182 159.885q-.236-1.228-.611-1.997l.001.002q-.395-.796-1.13-1.618l-.001-.001q-1.038-1.174-3.058-1.542c-.097-.017-.171-.124-.165-.238.006-.115.089-.193.185-.175q2.139.388 3.267 1.665l-.001-.001q.776.868 1.201 1.723l.001.001q.404.83.653 2.125c.022.114-.036.22-.131.235-.094.016-.188-.064-.211-.179m-5.747-3.633q-.467.09-1.415.888l.005-.004a4 4 0 0 0-.929 1.248l.002-.006a4.36 4.36 0 0 0-.219 2.966c.031.113-.019.225-.111.251s-.191-.044-.222-.156a4.82 4.82 0 0 1 .237-3.281l.003-.005a4.4 4.4 0 0 1 1.009-1.358l.005-.005q1.008-.847 1.548-.951c.094-.018.189.06.214.174s-.033.221-.127.239M182.943 62.228q-2.088.813-4.385-2.831a112 112 0 0 0-3.64-5.33l-.008-.01q-.63-.975-1.032-1.812l.005.01q-1.02-1.937-.437-3.574a.2.2 0 0 1 .025-.053q1.666-2.767 3.84-1.056.687.542 1.421 1.55.01.013.017.027 3.775 6.868 4.266 9.055l-.011-.036q1.293 3.576-.177 4.41c-.115.066-.253.012-.308-.12s-.004-.293.111-.358q1.071-.608-.054-3.717l-.01-.035q-.472-2.106-4.21-8.905l.018.028q-.694-.953-1.33-1.455-1.796-1.414-3.195.91l.025-.052q-.493 1.388.407 3.095l.004.01q.386.805.999 1.751l-.007-.01a113 113 0 0 1 3.658 5.355q2.102 3.334 3.868 2.647c.122-.048.252.027.29.167.039.14-.029.291-.15.339"/><path fill="#E1B193" d="M174.312 48.024q-.493.189-.994-.102l.009.004q-.454-.237-.675-.804l-.001-.003a2.02 2.02 0 0 1-.059-1.24 1.33 1.33 0 0 1 .623-.856q.79-.377 1.359.291l-.005-.005q.238.263.449.952l-.002-.006q.179.541.204 1.075c.008.149-.09.279-.217.29-.127.013-.236-.099-.243-.247a3.5 3.5 0 0 0-.175-.914l-.001-.006q-.176-.57-.335-.747l-.005-.006q-.357-.418-.863-.177l.022-.012a.8.8 0 0 0-.369.51 1.43 1.43 0 0 0 .039.871l-.001-.003q.15.386.45.542l.008.005q.334.195.647.074c.122-.046.251.03.288.172.038.143-.031.295-.153.342m6.883 13.73q1.2 2.52 1.814 4.425l.002.01q3.003 10.62 3.377 11.307l.017.04q1.092 3.065 2.446 5.257l-.002-.004q4.366 6.84 9.106 6.287l-.048.012q3.71-1.357 4.611-4.039l.01-.025q1.28-2.892-.508-6.22l-.006-.012q-1.174-2.472-3.783-4.802l-.004-.002a28 28 0 0 0-2.178-1.787h.002l-9.075-6.678-.012-.01q-2.43-2.047-3.734-3.949a.294.294 0 0 1 .042-.373.212.212 0 0 1 .326.04q1.266 1.846 3.648 3.853l-.012-.01 9.075 6.68h.001q1.291.967 2.214 1.818l-.002-.003q2.683 2.395 3.901 4.961l-.006-.012q1.923 3.578.524 6.737l.01-.025q-.984 2.925-4.911 4.364a.2.2 0 0 1-.048.01q-5.002.584-9.521-6.495l-.002-.003q-1.384-2.24-2.494-5.361l.017.04q-.403-.74-3.423-11.422l.003.01q-.602-1.87-1.786-4.357a.29.29 0 0 1 .095-.362c.113-.072.254-.027.314.1"/><path fill="#E1B193" d="M200.312 87.319q-4.553-.495-7.928-4.98l.046.047q-1.184-.9-8.615-16.355l.01.019q-1.296-2.22-2.577-3.62a.294.294 0 0 1-.004-.374c.089-.107.235-.113.327-.014q1.317 1.44 2.639 3.706l.011.019q7.378 15.344 8.47 16.175a.2.2 0 0 1 .046.046q3.256 4.329 7.629 4.803c.127.014.217.143.203.289-.015.145-.13.252-.257.239"/><path fill="#E1B193" d="M199.833 87.773q.24-3.746-2.953-8.327l.003.003q-2.948-4.125-4.398-5.797l.006.006q-2.904-3.14-5.096-5.875l.018.02q-4.495-4.462-4.744-5.026-.09-.201.018-.356l.016-.02c.087-.105.228-.106.313-.002a.305.305 0 0 1 .009.358q.085-.123.036-.236.21.474 4.638 4.87l.018.02q2.181 2.72 5.073 5.848l.006.006q1.463 1.689 4.425 5.833l.002.002q3.305 4.744 3.051 8.703c-.009.147-.116.259-.237.25-.122-.008-.214-.134-.204-.28m-23.939-39.301q-.338.2-.539.682l-.002.004a2.2 2.2 0 0 0-.168 1.04l-.001-.01q.11 1.06 1.395 3.085a.27.27 0 0 1-.074.363.24.24 0 0 1-.346-.066q-1.35-2.127-1.473-3.31l-.001-.008a2.7 2.7 0 0 1 .213-1.298l-.001.004q.271-.646.758-.936a.24.24 0 0 1 .339.094.27.27 0 0 1-.1.356m1.385 6.006q.729 1.362 1.029 1.878c.072.124.047.3-.056.39s-.246.063-.319-.062q-.304-.524-1.038-1.895c-.068-.128-.038-.301.068-.387s.247-.052.316.076m1.671 2.699q.197.204.398.47a.38.38 0 0 1-.003.43c-.09.12-.236.12-.324.001a4 4 0 0 0-.355-.419c-.099-.102-.116-.293-.038-.426s.222-.158.322-.056m584.325 107.061q-.48 2.589-1.121 3.077l.031-.028q-1.075 1.15-2.758 1.201h-.005q-3.211.028-3.546-4.083v-.006a17.7 17.7 0 0 1 .429-5.012l-.001.005q.497-2.372 1.4-2.747l-.011.005q2.18-1.04 4.048-.4a.3.3 0 0 1 .087.052q1.162 1.067 1.162 3.991c0 .141-.11.253-.244.25a.257.257 0 0 1-.244-.261q0-2.689-.991-3.599l.087.052q-1.687-.578-3.695.38l-.011.005q-.67.278-1.111 2.391l-.002.005a17.1 17.1 0 0 0-.416 4.863l-.001-.006q.294 3.628 3.046 3.605h-.005q1.49-.045 2.429-1.051a.2.2 0 0 1 .03-.027q.49-.374.935-2.77a.24.24 0 0 1 .285-.196c.132.03.219.166.193.304"/><path fill="#E1B193" d="M763.135 161.472q-.012.388.035.735a.247.247 0 0 1-.206.284.25.25 0 0 1-.276-.222 5 5 0 0 1-.04-.826.24.24 0 0 1 .252-.24c.134.008.24.128.235.269m-2.77-.92c-.114.514-.656.729-1.132.604-.476-.126-.869-.588-.755-1.102s.657-.73 1.132-.604c.476.125.869.588.755 1.102m-.475-.125c.034-.156-.085-.402-.389-.483s-.513.08-.548.235c-.034.155.085.402.389.482s.514-.08.548-.234m.67 3.97c-.158.716-.869 1.116-1.564.933-.694-.183-1.159-.894-1-1.61s.869-1.116 1.564-.933c.694.183 1.159.894 1 1.61m-.475-.125c.092-.416-.176-.869-.635-.99-.46-.121-.887.149-.979.564s.176.868.635.989.887-.148.979-.563m-2.719-7.041q2.06-9.185 2.026-9.737.009.152.175.197.16.042.233-.08l-.002.003a.233.233 0 0 1-.287.112.26.26 0 0 1-.167-.275q.3-2.844-.226-6.066l.001.006q-.328-1.746-1.17-3.042l.045.053q-4.578-4.076-4.822-5.291l.019.057q-1.122-2.507-.747-5.396l.001-.004q1.223-8.407 9.35-9.909l.013-.003q4.58-.585 8.527 2.322l.005.004q4.002 3.126 4.013 7.872v-.007q.097 3.384-2.996 7.505v-.001q-1.314 1.768-2.589 2.863l-.025.019q-3.994 2.62-4.237 2.95.045-.061.026-.162a.26.26 0 0 1-.069.233q-.976.976-1.417 2.115l-.004.009q-1.657 3.845-.987 13.222a.246.246 0 0 1-.225.269.255.255 0 0 1-.262-.242q-.678-9.505 1.029-13.467l-.004.009q.48-1.238 1.53-2.288l-.069.233a.3.3 0 0 1 .064-.249q.295-.399 4.36-3.067l-.024.019q1.235-1.061 2.516-2.785l.001-.001q2.986-3.978 2.895-7.18l-.001-.007q-.01-4.486-3.811-7.455l.006.005q-3.788-2.792-8.183-2.231l.013-.002q-7.792 1.44-8.963 9.495v-.004q-.355 2.738.704 5.108a.3.3 0 0 1 .018.056q.21 1.04 4.656 5a.2.2 0 0 1 .045.052q.9 1.385 1.247 3.235l.002.006q.537 3.293.229 6.209l-.455-.163.014-.023q.111-.184.291-.136.188.05.201.277.038.628-2.038 9.884a.24.24 0 0 1-.293.184.26.26 0 0 1-.182-.31"/><path fill="#E1B193" d="M757.549 132.458q1.017 1.096 1.905 1.588l-.002-.001q.929.504 2.252.744l.002.001q1.877.355 4.354-.983a.243.243 0 0 1 .331.111.26.26 0 0 1-.1.344q-2.622 1.416-4.662 1.03h.002q-1.399-.255-2.396-.795l-.002-.001q-.959-.531-2.031-1.686a.264.264 0 0 1 .002-.361.237.237 0 0 1 .345.009m8.637-1.071q.464-.493 1.034-2.148l-.003.009a6 6 0 0 0 .271-2.112v.008q-.185-2.074-1.573-3.322a.263.263 0 0 1-.03-.36.235.235 0 0 1 .343-.024q1.541 1.386 1.746 3.669v.008a6.5 6.5 0 0 1-.295 2.306q-.605 1.757-1.143 2.328a.235.235 0 0 1-.344-.001.263.263 0 0 1-.006-.361M578.095 658.348l.002.004.008.03.005.03a.3.3 0 0 1-.006.11l-.014.053a.3.3 0 0 0 .012-.055.4.4 0 0 0 .006-.058l-.001-.028-.001-.021-.003-.021-.003-.022zm-21.106-6.763.002-.008q.437-.758 3.7.526 2.096 1.321 4.953 3.6 1.36.522 1.47.224.879-.861-.539-2.706l-6.713-5.501q-1.425-1.646-1.201-2.138.494-.505 4.136.248.779.41 4.611 3.625 1.005.525 1.379.417 1.166-.336.211-1.708l-5.193-4.44q-1.503-1.608-1.612-2.08-.274-2.674 6.075 1.385 4.485 3.53 5.211 4.541.901 1.647 1.027 2.225.884 5.781 1.015 5.756.521 1.306 1.623 2.897 3.393 2.951 9.99 7.922 8.12 5.458 11.678 8.271 3.307 3.401 2.438 5.79.332.91-2.62 2.32-1.366.086-1.99-.398-.83-.564-2.566-2.266-8.133-9.366-11.551-12.706-2.827-2.695-3.966-3.661-1.632-1.38-4.201-3.298l.088.025-.718-.648q-.324-.18-.446-.176-2.358.654-3.426.592-1.691-.305-2.512-.705-4.145-2.345-5.39-3.305-4.653-3.779-4.963-4.62m-.687-.27-.01.053q-.061.546.155.842.698.76 3.635 3.448 2.78 2.101 6.212 4.173 1.596.83 2.812 1.06a9.3 9.3 0 0 0 4.109-.417l2.98 2.24q5.415 4.706 6.884 6.26 4.409 4.544 10.892 12.003 1.265 1.231 2.294 1.941 3.857 2.03 5.768-2.544.186-1.672-.067-2.321-1.338-2.716-2.694-3.913-.577-.527-2.389-1.865l-13.17-9.375q-3.546-2.715-6.138-5.157-1.245-1.707-1.473-2.624-.174-.583-.948-5.621-.116-.4-.842-1.793-3.717-4.364-6.349-5.832-2.169-1.323-5.034-2.098-1.3.149-1.388 1.293.12 1.362.903 2.307.847 1.057 5.848 5.024.581.664.37.694-.163.096-.93-.289a25.5 25.5 0 0 0-5.465-3.961q-4.462-.575-4.228.445-.246.833.879 2.458l.802.805 6.395 5.201q.798.946.583 1.465-.285.031-.706-.152-4.852-3.76-6.079-4.188-1.22-.428-2.054-.425-1.353.222-1.557.863"/><path fill="#E1B193" d="m595.329 671.471.045.031q.578.427.751.612l2.964-.202q.27.004.987.154.385.101 1.11.467.424.262.75.592.863.853.675 2.827a1.47 1.47 0 0 1-.437.703q-.43.313-.572.33-.225.082-.497.127.339.672.28.762.366-.099.663-.261l.28-.176q.261-.193.453-.448.572-.878.524-1.866a2.97 2.97 0 0 0-.5-1.73l-.196-.307-.39-.439a11 11 0 0 0-.881-.685q-.756-.588-2.156-.756-2.66.225-3.853.265m-43.941-.03-.015.083q-.5 3.644 2.185 6.408 3.064 3.459 9.217 4.619 1.548.096 3.01-.19a11.6 11.6 0 0 0 2.839-.949l1.355-.761q2.667-1.71 4.99-4.941 5.721.238 16.031 1.917a7 7 0 0 1-.791-.907q-11.169-1.688-15.12-1.852l-.383.043q-1.87 2.473-4.553 4.58-1.421 1.128-3.678 1.91l-1.955.363-2.155-.054q-.705-.114-2.735-.737a15 15 0 0 1-1.501-.616q-3.293-1.758-4.908-4.03-1.044-1.326-1.296-3.479.512-2.577 1.935-4.187 2-1.923 2.687-2.087a12.7 12.7 0 0 1 2.389-.931q3.058-.648 5.446-.041 1.758.476 2.684.9l7.43 4.143q2.166 1.015 3.36 1.398 1.529.447 3.491.698 1.35.244 5.582.322l-.687-.787q-5.244.014-8.591-1.089-1.347-.476-3.362-1.467-1.741-.922-5.671-3.259l-1.613-.791q-1.278-.58-3.583-1.016-2.994-.255-4.131.106-1.568.316-2.999 1.071-3.103 2.267-3.644 3.182-.999 1.24-1.26 2.428"/><path fill="#E1B193" d="M572.733 671.738q-.985-1.103-2.684-2.201l.018.011q-1.298-.751-3.675-1.501a.44.44 0 0 1-.284-.502c.044-.214.241-.335.441-.272q2.456.776 3.826 1.568l.018.01q1.791 1.16 2.854 2.347c.147.165.152.421.011.57-.142.149-.376.135-.525-.03m-8.798-3.856a6 6 0 0 0-.892-.079l-.008-.001q-.307-.009-1.417.084c-.197.017-.399-.159-.452-.392-.052-.234.064-.436.261-.453q1.144-.095 1.487-.085h-.009q.439.001.99.087c.203.032.376.246.388.478.011.231-.145.393-.348.361m-7.076 1.293a.4.4 0 0 1-.078.109 18 18 0 0 1-.638.542l.003-.003q-.098.083-.397.365c-.142.135-.368.106-.505-.064-.137-.171-.132-.418.01-.552q.312-.295.422-.389l.003-.003q.532-.44.595-.501a.3.3 0 0 0-.057.084c.087-.185.3-.243.478-.129a.44.44 0 0 1 .164.541m41.116 11.865q-1.234-.528-3.223-2.208l-.013-.011a90 90 0 0 1-4.716-4.655c-.151-.159-.169-.411-.04-.561s.355-.143.506.016a89 89 0 0 0 4.67 4.61l-.012-.011q1.897 1.601 3.022 2.084a.454.454 0 0 1 .249.517.316.316 0 0 1-.443.219m-10.307-9.755q-.361-.29-2.296-2.599a.425.425 0 0 1 .024-.575.37.37 0 0 1 .542.042q1.882 2.247 2.181 2.485c.17.138.208.393.084.572a.365.365 0 0 1-.535.075m-14.16-15.667a3.7 3.7 0 0 1-.013-.662l.002-.017.12-1.389v.003q.053-.655.056-.785l.001-.009q.026-.568.002-.921c-.013-.205.122-.355.303-.334s.339.205.352.411q.027.4-.001 1.013v-.01q-.003.154-.058.832l-.001.002-.12 1.389.001-.017q-.017.376.002.487c.033.207-.084.377-.262.378-.179.002-.35-.164-.384-.371m.085-5.567a5 5 0 0 0-.291-.702l-.003-.004a10 10 0 0 0-.671-1.075.42.42 0 0 1 .08-.569.374.374 0 0 1 .539.093q.506.727.731 1.173l-.003-.005q.188.36.344.825a.41.41 0 0 1-.234.517.384.384 0 0 1-.492-.253M504.487 37.43l-.003.002-.018.003a.2.2 0 0 1-.05-.002l-.036-.012-.033-.016.034.015a.2.2 0 0 0 .053.011l.013.001h.026zm4.165-15.163.005.002q.468.399-.323 2.721-.815 1.444-2.22 3.367-.323.969-.138 1.08.533.74 1.671-.146l3.393-4.504q1.016-.91 1.319-.696.313.418-.151 3.075-.252.544-2.235 3.108-.324.702-.257.993.207.906 1.054.32l2.739-3.465q.993-.975 1.284-1.01 1.652.05-.852 4.418-2.177 3.023-2.801 3.47-1.017.52-1.374.557-3.569.112-3.553.212-.807.266-1.788.94-1.821 2.26-4.887 6.727-3.366 5.563-5.101 7.96-2.098 2.152-3.574 1.273-.563.162-1.434-2.183-.054-1.032.245-1.453.348-.567 1.398-1.706 5.779-5.199 7.839-7.44 1.663-1.861 2.259-2.623a54 54 0 0 0 2.034-2.831l-.015.063.399-.476q.112-.225.109-.317-.405-1.828-.367-2.623.186-1.238.434-1.814 1.445-2.883 2.038-3.722 2.331-3.126 2.85-3.277m.166-.49-.033-.012q-.336-.098-.52.036-.468.45-2.126 2.394a46 46 0 0 0-2.574 4.255q-.512 1.116-.653 2.006a8.7 8.7 0 0 0 .26 3.116l-1.382 2.02q-2.904 3.607-3.862 4.559-2.804 2.868-7.406 7.014-.76.831-1.198 1.533-1.251 2.695 1.575 4.563 1.031.299 1.433.17 1.676-.742 2.414-1.644.326-.381 1.151-1.611l5.782-8.971q1.674-2.398 3.181-4.106 1.053-.769 1.619-.854.36-.074 3.471-.174.248-.048 1.107-.46 2.693-2.367 3.597-4.199.817-1.498 1.294-3.57-.093-.988-.8-1.163-.84-.04-1.424.456-.653.535-3.099 3.901-.41.372-.428.212-.06-.132.178-.67a15.8 15.8 0 0 0 2.443-3.715q.352-3.287-.277-3.21-.514-.263-1.518.425l-.496.523-3.209 4.294q-.583.508-.904.298a1.2 1.2 0 0 1 .094-.515q2.32-3.276 2.582-4.154.264-.873.262-1.498-.138-1.035-.534-1.248"/><path fill="#E1B193" d="m496.392 49.09-.02.031q-.263.392-.377.504l.126 2.24a5 5 0 0 1-.094.724 4.7 4.7 0 0 1-.288.787 2.4 2.4 0 0 1-.365.505q-.527.566-1.745.237a1.13 1.13 0 0 1-.435-.395q-.194-.351-.204-.46a3 3 0 0 1-.079-.384q-.414.19-.47.137.062.284.161.521l.11.227q.118.214.276.381.543.514 1.153.571.579.105 1.068-.21l.189-.117.271-.25q.228-.285.422-.595.364-.51.466-1.543a81 81 0 0 1-.165-2.91m-.003-32.912-.05-.02q-2.251-.72-3.957 1.026-2.133 1.965-2.847 6.463-.059 1.15.118 2.274a11.3 11.3 0 0 0 .588 2.217l.47 1.087q1.058 2.16 3.054 4.208-.145 4.264-1.176 11.826a4 4 0 0 1 .559-.506q1.037-8.205 1.137-11.149l-.027-.291q-1.527-1.638-2.83-3.847-.698-1.172-1.181-2.937l-.225-1.499.032-1.61q.07-.517.454-1.978.17-.566.379-1.065 1.084-2.298 2.487-3.292.817-.655 2.147-.639 1.592.63 2.586 1.848 1.19 1.682 1.29 2.212.345.858.576 1.878.402 2.353.028 4.083-.293 1.271-.554 1.925l-2.555 5.17q-.625 1.526-.862 2.384a19 19 0 0 0-.429 2.548q-.15.988-.196 4.15l.486-.439q-.012-3.93.668-6.332.294-.962.904-2.378.569-1.215 2.009-3.937l.489-1.133q.357-.9.625-2.586.156-2.22-.067-3.105a10.8 10.8 0 0 0-.663-2.348q-1.401-2.541-1.967-3.033-.767-.867-1.5-1.175"/><path fill="#E1B193" d="M496.215 32.139q.681-.633 1.358-1.8l-.006.012q.463-.9.925-2.61c.039-.143.177-.217.309-.165a.3.3 0 0 1 .168.357q-.477 1.765-.966 2.716l-.006.012q-.715 1.232-1.448 1.914c-.102.095-.26.074-.352-.046s-.083-.295.018-.39m2.377-6.222a5 5 0 0 0 .049-.66v-.007q.006-.23-.052-1.07a.283.283 0 0 1 .242-.3.25.25 0 0 1 .279.238q.06.866.054 1.122v-.006a6 6 0 0 1-.053.732.28.28 0 0 1-.295.245.256.256 0 0 1-.224-.294m-.801-5.425a.3.3 0 0 1-.068-.069 16 16 0 0 1-.334-.53l.001.003a11 11 0 0 0-.226-.332c-.083-.119-.065-.286.04-.372s.258-.059.341.06q.181.262.24.354l.002.002q.271.44.31.493a.29.29 0 0 1 .028.32.226.226 0 0 1-.334.071m-7.307 29.666q.325-.873 1.362-2.203l.007-.009q1.273-1.5 2.872-3.088c.098-.098.254-.088.347.023s.088.28-.01.378a50 50 0 0 0-2.845 3.058l.007-.008q-.988 1.268-1.285 2.065c-.051.135-.193.197-.319.137a.284.284 0 0 1-.136-.353m6.019-6.789q.18-.242 1.604-1.472c.105-.09.264-.058.355.073s.079.311-.026.402q-1.386 1.196-1.533 1.397c-.085.114-.243.118-.353.008s-.131-.293-.047-.408m9.667-9.112q.124-.006.409.054l.01.003.858.222h-.002q.404.102.485.117h.006q.35.075.568.09a.23.23 0 0 1 .207.26.244.244 0 0 1-.254.224 5 5 0 0 1-.625-.098l.006.001a11 11 0 0 1-.514-.123h-.001l-.858-.223.011.002a1.6 1.6 0 0 0-.301-.045.23.23 0 0 1-.234-.232.247.247 0 0 1 .229-.252m3.436.593q.247-.061.433-.15l.002-.002q.243-.112.663-.4c.113-.078.27-.027.351.114.081.14.056.317-.057.394a5 5 0 0 1-.724.435l.003-.001q-.222.106-.508.179c-.131.033-.274-.068-.319-.224-.045-.157.025-.311.156-.344m636.664 253.816v.003c.01.016.02.025.02.027 0 .011.01.02.01.029 0 .011.01.028.01.05.01.019.01.04.01.061v.057-.058c0-.02-.01-.04-.01-.059 0 0 0-.01-.01-.028v-.02c-.01-.008-.01-.014-.01-.021l-.01-.021zm-22.3-1.357v-.009c.17-.578 1.43-.718 3.76-.42 1.57.522 3.47 1.298 5.69 2.326q1.455.176 1.5-.151c.44-.722.06-1.576-1.15-2.563l-7.86-3.772c-1.18-.852-1.74-1.462-1.66-1.827.24-.421 1.62-.69 4.12-.809.57.14 2.36.953 5.36 2.439.74.178 1.22.199 1.45.064.72-.422.65-1.008-.18-1.758l-6.12-3.104c-1.23-.814-1.92-1.368-2.06-1.663-.59-1.732 1.51-1.789 6.29-.171 3.48 1.584 5.53 2.651 6.16 3.2.84.942 1.35 1.595 1.52 1.958q2.19 5.542 2.31 5.483c.54.78 1.29 1.605 2.26 2.476 2.67 1.386 6.55 3.169 11.63 5.351 6.16 2.248 10.61 4.005 13.37 5.27q4.035 2.548 3.72 5.154.54.823-2.04 2.983c-.89.29-1.57.328-2.05.112-.63-.234-1.65-.77-3.04-1.605-6.76-4.845-11.51-8.087-14.26-9.726-2.27-1.312-3.84-2.192-4.74-2.64-1.28-.64-2.91-1.379-4.88-2.218l.09.003-.85-.463q-.36-.098-.48-.062-2.175 1.254-3.24 1.466c-1.15.086-2.03.065-2.63-.062-3.07-.853-5.09-1.494-6.05-1.92q-5.445-2.582-5.94-3.342m-.74-.093.01.055c.04.373.15.64.34.8.57.386 2.03 1.224 4.36 2.511a71 71 0 0 0 7.06 2.577c1.18.28 2.18.394 3.01.339a9.5 9.5 0 0 0 3.95-1.465l3.44 1.474c4.27 2.208 7 3.703 8.2 4.486 3.58 2.272 8.06 5.337 13.45 9.194q1.53.905 2.7 1.351c2.84.692 4.53-.645 5.09-4.013q-.195-1.714-.6-2.298-1.935-2.368-3.54-3.215c-.46-.253-1.38-.67-2.77-1.251l-15.09-5.989c-2.74-1.202-5.15-2.394-7.22-3.578-1.07-.923-1.76-1.67-2.05-2.241-.2-.358-.94-2.147-2.21-5.366-.14-.246-.55-.771-1.24-1.574-3.1-2.27-5.62-3.668-7.57-4.196q-2.445-.767-5.43-.808c-.83.32-1.19.869-1.07 1.645.28.885.76 1.575 1.41 2.071q1.08.838 6.9 3.519c.48.342.66.541.52.597-.09.092-.42.075-.98-.051a25 25 0 0 0-6.28-2.555q-4.515.565-4.05 1.524c-.04.595.44 1.338 1.42 2.227l.97.599 7.48 3.555c.67.494.97.931.91 1.313-.18.069-.43.078-.73.028q-5.625-2.512-6.93-2.625c-.87-.077-1.58-.043-2.12.1-.86.379-1.3.798-1.34 1.26"/><path fill="#E1B193" d="m1166.22 297.357.05.019c.44.186.73.325.88.419l2.86-.959c.18-.044.52-.077 1.01-.099q.405.004 1.2.183.48.153.87.399c.7.421 1.13 1.303 1.31 2.648q-.03.458-.27.813c-.23.282-.4.44-.49.476-.13.093-.29.177-.46.254q.495.582.45.688.345-.192.6-.43l.23-.247c.14-.173.26-.361.34-.562q.36-1.023.09-1.996a3 3 0 0 0-.88-1.598l-.27-.257-.48-.338q-.51-.26-1.02-.458c-.59-.263-1.35-.331-2.3-.204q-2.565.904-3.72 1.249M1123 308.551v.086c.23 2.509 1.43 4.455 3.61 5.836 2.54 1.778 5.91 2.529 10.12 2.254 1.03-.201 2-.52 2.92-.959.91-.438 1.77-.996 2.57-1.672l1.16-1.105q2.235-2.388 3.78-6.204 5.685-1.224 16.2-2.183a7 7 0 0 1-.98-.703c-7.58.78-12.68 1.451-15.29 2.015l-.37.141c-.85 1.963-2 3.874-3.43 5.733q-1.14 1.488-3.18 2.844l-1.84.862-2.13.496c-.48.044-1.44.032-2.86-.036q-.84-.075-1.62-.231c-2.43-.609-4.34-1.532-5.75-2.768-.88-.704-1.57-1.75-2.06-3.139-.06-1.801.26-3.358.94-4.672 1.02-1.62 1.74-2.543 2.17-2.769q.93-.831 2.13-1.539c1.91-.952 3.69-1.429 5.35-1.432 1.23.017 2.17.088 2.85.213l8.25 2.235c1.57.306 2.78.486 3.62.537q1.605.056 3.6-.196c.92-.067 2.77-.435 5.56-1.104l-.86-.61c-3.43.902-6.33 1.271-8.69 1.109-.96-.089-2.17-.29-3.65-.606-1.28-.317-3.38-.917-6.32-1.802l-1.76-.378c-.93-.168-2.18-.201-3.76-.099-2 .341-3.35.728-4.04 1.161a11.5 11.5 0 0 0-2.7 1.835c-1.69 2.037-2.64 3.405-2.86 4.106-.46.995-.69 1.91-.68 2.744"/><path fill="#E1B193" d="M1144.06 303.395q-1.23-.849-3.15-1.511l.02.007c-.96-.279-2.28-.465-3.95-.559-.21-.012-.39-.203-.4-.428 0-.224.16-.396.37-.384 1.73.098 3.11.293 4.13.587 0 .001.01.003.01.005 1.36.466 2.47 1.004 3.35 1.613a.45.45 0 0 1 .14.566.354.354 0 0 1-.52.104m-9.54-1.599c-.34.033-.64.082-.89.148-.01 0-.01.001-.01.002q-.3.07-1.38.446c-.19.066-.42-.058-.53-.277-.1-.219-.04-.451.15-.518.74-.258 1.22-.413 1.45-.465l-.01.002q.435-.11.99-.165c.21-.02.43.148.49.377.07.228-.05.429-.26.45m-6.66 3.097c-.01.043-.03.086-.05.129q-.06.103-.51.703l.01-.003c-.06.071-.16.226-.31.466-.11.17-.34.199-.51.064-.18-.135-.23-.383-.12-.553q.24-.374.33-.495v-.004c.28-.384.44-.601.47-.653a.3.3 0 0 0-.04.099c.05-.207.24-.319.44-.251.21.069.33.291.29.498m43.14 1.335c-.89-.142-2.11-.602-3.67-1.38-.01-.002-.01-.005-.02-.008q-2.7-1.481-5.7-3.439c-.18-.121-.26-.367-.17-.55.1-.183.32-.233.51-.113a87 87 0 0 0 5.64 3.406l-.01-.007c1.48.742 2.63 1.177 3.44 1.306a.46.46 0 0 1 .37.453c-.01.216-.18.365-.39.332m-12.36-7.1q-.42-.196-2.85-2.007a.437.437 0 0 1-.11-.579c.12-.186.36-.23.54-.096 1.58 1.173 2.48 1.814 2.71 1.922.2.093.3.339.22.549-.09.209-.31.304-.51.211m-17.5-12.013c-.06-.129-.11-.347-.17-.658v-.017l-.2-1.416v.002q-.09-.666-.12-.797v-.009a9 9 0 0 0-.21-.92c-.06-.201.04-.386.22-.41.18-.026.38.118.44.319.08.262.16.599.23 1.011v-.009c.02.103.06.384.13.844v.003l.2 1.416v-.017c.04.253.08.414.11.486.08.198 0 .397-.17.444-.18.047-.38-.075-.46-.272m-1.19-5.577q-.225-.365-.45-.625v-.004a9 9 0 0 0-.91-.901.44.44 0 0 1-.05-.588.373.373 0 0 1 .55-.045q.675.597.99.984v-.004c.18.207.35.452.52.735.12.193.07.451-.11.575s-.42.067-.54-.127M716.211 22.746l.001.004.009.03.005.03q.003.02.002.052a.3.3 0 0 1-.008.06.3.3 0 0 1-.015.055.4.4 0 0 0 .018-.115v-.029l-.002-.02-.002-.023-.004-.022zm-21.107-6.917.002-.009q.438-.774 3.701.538 2.094 1.353 4.953 3.682 1.36.535 1.47.23.877-.88-.539-2.768l-6.714-5.626q-1.425-1.683-1.2-2.187.494-.516 4.136.254.779.42 4.61 3.707 1.006.537 1.38.427 1.165-.344.211-1.747l-5.193-4.54q-1.504-1.647-1.613-2.128-.273-2.734 6.075 1.416 4.485 3.61 5.211 4.644.902 1.685 1.027 2.277.885 5.91 1.016 5.886.52 1.335 1.622 2.962 3.394 3.02 9.991 8.102 8.12 5.582 11.678 8.46 3.307 3.478 2.438 5.921.332.932-2.62 2.373-1.366.088-1.99-.407-.83-.578-2.566-2.317-8.133-9.58-11.551-12.995-2.827-2.757-3.967-3.744-1.63-1.412-4.2-3.373l.088.025-.718-.662q-.324-.185-.446-.18-2.358.668-3.426.605-1.692-.31-2.513-.722-4.145-2.396-5.39-3.38-4.653-3.864-4.963-4.724m-.687-.276-.009.054q-.061.558.155.861.697.777 3.635 3.526 2.78 2.15 6.212 4.268 1.596.849 2.812 1.084a9.1 9.1 0 0 0 4.108-.426l2.981 2.291q5.415 4.812 6.883 6.401 4.41 4.65 10.893 12.277 1.266 1.26 2.294 1.985 3.857 2.076 5.768-2.602.186-1.709-.067-2.374-1.338-2.777-2.694-4.001-.577-.54-2.389-1.908l-13.17-9.588q-3.546-2.776-6.138-5.275-1.245-1.744-1.474-2.683-.173-.596-.948-5.749-.115-.409-.841-1.834-3.717-4.462-6.349-5.964-2.169-1.354-5.034-2.146-1.3.153-1.389 1.323.121 1.392.903 2.36.849 1.08 5.848 5.137.582.68.371.71-.163.098-.93-.295a25.6 25.6 0 0 0-5.465-4.051q-4.462-.588-4.228.455-.246.851.879 2.514l.801.823 6.395 5.32q.798.966.584 1.498-.285.03-.707-.157-4.851-3.846-6.078-4.282-1.221-.438-2.055-.435-1.353.227-1.557.883"/><path fill="#E1B193" d="m733.443 36.167.045.032q.579.435.751.625l2.964-.206q.272.004.987.157.385.105 1.11.478.425.268.75.605.864.873.676 2.891-.125.436-.437.72-.43.32-.572.337a3 3 0 0 1-.498.13q.339.687.28.779.367-.102.663-.267l.28-.18q.261-.197.453-.458a3.2 3.2 0 0 0 .524-1.908 3.1 3.1 0 0 0-.5-1.77l-.196-.314-.389-.448a11 11 0 0 0-.882-.7q-.755-.604-2.156-.774-2.66.23-3.853.271m-43.941-.03-.015.084q-.499 3.728 2.185 6.554 3.066 3.537 9.217 4.724 1.548.097 3.011-.194a11.4 11.4 0 0 0 2.839-.971l1.355-.778q2.667-1.75 4.989-5.054 5.722.245 16.032 1.961a7.4 7.4 0 0 1-.791-.928q-11.169-1.725-15.12-1.894l-.384.045q-1.87 2.527-4.552 4.684-1.422 1.154-3.678 1.953l-1.955.37-2.155-.054q-.707-.117-2.736-.754a15 15 0 0 1-1.5-.63q-3.293-1.798-4.908-4.122-1.045-1.356-1.296-3.558.512-2.635 1.934-4.282 2.001-1.967 2.688-2.135 1.075-.57 2.388-.952 3.059-.662 5.447-.042 1.756.486 2.683.921l7.43 4.237q2.166 1.038 3.361 1.43 1.529.458 3.491.714 1.35.249 5.582.33l-.687-.806q-5.245.014-8.592-1.113-1.346-.488-3.362-1.501-1.74-.945-5.671-3.332l-1.613-.81q-1.277-.593-3.582-1.04-2.994-.26-4.132.109a11 11 0 0 0-2.998 1.096q-3.104 2.319-3.645 3.254-.997 1.269-1.26 2.484"/><path fill="#E1B193" d="M710.849 36.44q-.986-1.128-2.685-2.251l.018.01q-1.298-.767-3.674-1.534c-.201-.065-.328-.294-.285-.513s.241-.343.441-.278q2.457.793 3.827 1.603l.017.01q1.792 1.185 2.854 2.4c.148.17.152.431.011.583-.142.153-.376.139-.524-.03m-8.8-3.944a6 6 0 0 0-.891-.08q-.004-.002-.009-.001-.307-.01-1.417.085c-.197.017-.399-.163-.452-.401s.064-.446.261-.463q1.144-.098 1.487-.087h-.009q.439 0 .99.09c.203.032.376.25.388.487.011.237-.145.403-.348.37m-7.076 1.323a.4.4 0 0 1-.078.111q-.084.084-.638.554l.003-.003q-.098.085-.397.374c-.142.138-.368.108-.505-.066-.136-.174-.132-.427.01-.564q.312-.303.422-.398l.003-.003q.532-.45.595-.513a.3.3 0 0 0-.057.086c.087-.189.301-.248.478-.131a.46.46 0 0 1 .164.553m41.117 12.135q-1.233-.541-3.223-2.258l-.012-.012a90 90 0 0 1-4.716-4.76c-.151-.164-.169-.421-.041-.575.129-.154.355-.146.507.017a90 90 0 0 0 4.67 4.715l-.013-.011q1.897 1.637 3.022 2.13a.466.466 0 0 1 .249.53c-.053.207-.252.308-.443.224m-10.308-9.978q-.36-.296-2.295-2.658a.44.44 0 0 1 .024-.587.363.363 0 0 1 .541.043q1.883 2.296 2.182 2.541c.17.14.208.402.083.585a.36.36 0 0 1-.535.076m-14.159-16.022a4 4 0 0 1-.012-.678l.002-.017.12-1.42v.003q.053-.67.056-.803v-.01q.026-.58.003-.941c-.014-.21.122-.364.303-.342s.338.21.352.42q.027.41-.001 1.036v-.01q-.003.157-.059.85v.003l-.12 1.42v-.017q-.015.384.002.498c.034.212-.083.386-.262.387-.178.002-.35-.168-.384-.38m.084-5.693a5 5 0 0 0-.291-.717l-.003-.005a10 10 0 0 0-.671-1.1.437.437 0 0 1 .08-.581.37.37 0 0 1 .539.094q.506.745.731 1.2l-.002-.004q.187.367.343.843c.072.217-.033.454-.234.529-.201.074-.421-.042-.492-.259M17.83 184.534l.003-.002.028-.008q.015-.004.029-.005l.048-.003q.027.002.056.009.026.006.051.017a.4.4 0 0 0-.107-.021l-.027.001-.02.001-.02.003-.021.003zm-6.626 22.554-.008-.002q-.717-.476.533-3.96 1.278-2.233 3.473-5.275.51-1.453.226-1.574-.812-.948-2.583.554l-5.3 7.146q-1.58 1.512-2.047 1.267-.478-.533.272-4.429.397-.83 3.493-4.908.51-1.072.41-1.474-.311-1.251-1.626-.241l-4.276 5.525q-1.545 1.597-1.996 1.71-2.55.27 1.371-6.497 3.402-4.774 4.372-5.543 1.577-.952 2.13-1.081 5.517-.898 5.493-1.039 1.25-.547 2.775-1.713 2.843-3.61 7.634-10.635 5.27-8.652 7.982-12.44 3.27-3.514 5.538-2.561.87-.348 2.189 2.826.07 1.465-.396 2.129-.546.884-2.181 2.73-8.995 8.632-12.207 12.265-2.593 3.005-3.522 4.218-1.33 1.735-3.18 4.471l.025-.094-.623.764q-.175.346-.172.476.603 2.532.535 3.676-.304 1.81-.694 2.686-2.269 4.42-3.195 5.746-3.64 4.952-4.445 5.277m-.262.734.05.011q.519.07.804-.16.73-.74 3.316-3.864 2.026-2.96 4.03-6.619.804-1.702 1.034-3.004a11.1 11.1 0 0 0-.363-4.405l2.16-3.174q4.532-5.76 6.024-7.32 4.37-4.684 11.532-11.566 1.185-1.346 1.87-2.441 1.965-4.115-2.377-6.202-1.59-.213-2.212.052-2.599 1.41-3.752 2.853-.507.612-1.797 2.542l-9.046 14.029q-2.617 3.777-4.968 6.532-1.636 1.318-2.512 1.556-.557.18-5.365.967-.383.12-1.716.886-4.19 3.945-5.611 6.751-1.28 2.313-2.043 5.376.13 1.393 1.221 1.498 1.298-.117 2.206-.947 1.015-.9 4.837-6.222.639-.617.665-.391.09.176-.283.994a27.4 27.4 0 0 0-3.821 5.82q-.587 4.776.388 4.534.79.271 2.35-.92l.773-.852 5.012-6.806q.908-.847 1.4-.613.028.306-.151.756-3.625 5.165-4.042 6.476-.419 1.303-.423 2.197.2 1.452.81 1.676"/><path fill="#E1B193" d="m30.481 166.184.03-.048q.41-.616.59-.8l-.168-3.177q.006-.29.155-1.056.1-.412.455-1.185.254-.453.57-.798.82-.918 2.7-.7.405.138.666.474.295.465.31.616.077.243.117.534.643-.357.728-.293-.091-.393-.242-.713l-.166-.301a2.3 2.3 0 0 0-.423-.489q-.832-.621-1.774-.578a2.6 2.6 0 0 0-1.653.521l-.294.207-.422.414q-.355.455-.66.938-.567.805-.738 2.304.19 2.852.22 4.13m-.402 47.077.077.016q3.47.567 6.126-2.285 3.322-3.254 4.48-9.835a14.3 14.3 0 0 0-.155-3.227 13.6 13.6 0 0 0-.88-3.05l-.714-1.458q-1.608-2.872-4.667-5.388.276-6.129 1.964-17.159-.344.401-.872.84-1.702 11.952-1.893 16.183l.038.411q2.34 2.025 4.326 4.917 1.063 1.533 1.789 3.957l.329 2.097-.07 2.309q-.114.755-.725 2.924-.27.844-.6 1.603-1.703 3.512-3.882 5.222-1.272 1.109-3.327 1.359-2.45-.571-3.973-2.108-1.816-2.16-1.967-2.898a14.7 14.7 0 0 1-.867-2.567q-.59-3.283.008-5.835.467-1.879.88-2.867l4.011-7.925q.987-2.312 1.362-3.588.438-1.634.695-3.735.243-1.443.354-5.977l-.757.73q-.03 5.618-1.11 9.195-.465 1.438-1.427 3.589-.893 1.857-3.153 6.047l-.768 1.722q-.564 1.363-1 3.829-.267 3.205.067 4.427.288 1.681.995 3.222 2.135 3.344 3.002 3.932 1.173 1.08 2.303 1.371"/><path fill="#E1B193" d="M30.544 190.394q-1.06 1.046-2.12 2.856l.01-.018q-.727 1.383-1.462 3.923c-.062.214-.277.348-.48.3-.204-.048-.318-.261-.256-.474q.76-2.625 1.527-4.086l.01-.018q1.12-1.91 2.26-3.038c.16-.157.402-.16.543-.007s.126.404-.032.562m-3.75 9.393a7 7 0 0 0-.083.955v.009q-.012.329.067 1.519c.014.211-.155.426-.378.48s-.415-.072-.429-.283q-.081-1.226-.068-1.593v.008q.004-.47.091-1.059a.5.5 0 0 1 .458-.411c.221-.01.374.158.342.375m1.172 7.593a.4.4 0 0 1 .103.084q.078.09.511.689l-.003-.004q.078.106.345.429c.127.153.098.395-.066.54-.163.145-.399.138-.525-.015a13 13 0 0 1-.367-.456l-.003-.003a18 18 0 0 0-.473-.641q.03.034.08.061c-.176-.094-.229-.324-.119-.513s.341-.266.517-.171m11.657-43.948q-.515 1.316-2.132 3.433l-.01.013a92 92 0 0 1-4.477 5.013c-.153.16-.393.177-.535.038s-.133-.381.02-.542a92 92 0 0 0 4.433-4.963l-.01.013q1.541-2.019 2.01-3.22c.08-.204.302-.321.495-.262.194.059.286.273.206.477m-9.384 10.958q-.28.385-2.497 2.437a.37.37 0 0 1-.547-.031.43.43 0 0 1 .045-.579q2.156-1.998 2.387-2.316a.38.38 0 0 1 .545-.085.423.423 0 0 1 .066.574m-15.049 15.035q-.192.033-.631.007l-.016-.002-1.323-.14.003-.001a18 18 0 0 0-.747-.066l-.01-.001a7 7 0 0 0-.877-.01c-.196.012-.338-.134-.316-.328a.44.44 0 0 1 .395-.374q.38-.024.965.01h-.01q.147.005.793.07h.002l1.323.142-.017-.002q.359.021.465.003c.197-.034.358.093.358.284s-.16.373-.357.408m-5.305-.139q-.384.14-.671.306l-.005.003q-.377.21-1.03.71a.37.37 0 0 1-.541-.091.43.43 0 0 1 .092-.577q.699-.536 1.125-.773l-.005.003q.345-.199.79-.362a.38.38 0 0 1 .49.256.424.424 0 0 1-.245.525M973.613 67.53q-6.003-7.033-9.874-3.614-.31.275-.61.615l-.033.033q-1.22 1.087-2.34 3l.011-.02q-6.687 13.233-14.027 24.86l.016-.026q-2.395 4.58-1.11 7.228l.002.003q1.989 4.205 7.69 8.612l.003.002q10.508 8.31 15.165 2.527a10 10 0 0 0 .671-.948q13.905-17.687 17.008-25.82 2.236-5.86-3.153-9.41c-.151-.1-.185-.31-.075-.47s.322-.208.473-.108q5.814 3.829 3.385 10.194-3.143 8.237-17.118 26.013l.023-.032q-.333.532-.7.988-5.099 6.331-16.121-2.386l.003.002q-5.817-4.498-7.87-8.836l.001.003q-1.432-2.952 1.128-7.846l.015-.026q7.32-11.598 13.991-24.798l.011-.02q1.18-2.016 2.49-3.183l-.033.033q.332-.377.678-.683 4.397-3.884 10.826 3.647c.118.138.096.354-.05.483-.145.128-.359.12-.476-.017"/><path fill="#E1B193" d="m981.765 74.108-.364-.287.008.006-2.603-1.908q-.337-.255-.666-.543c-.136-.12-.143-.334-.014-.48s.343-.168.479-.048q.31.273.632.515l-.004-.002 2.599 1.905.009.006.365.288c.142.112.159.325.037.477-.121.151-.335.183-.478.071m-5.448-4.441q-.17-.124-1.058-.652c-.156-.093-.199-.3-.095-.465.103-.164.313-.222.469-.129q.912.543 1.106.684c.146.106.17.319.054.474s-.33.195-.476.088m-.613 7.663q2.044 1.617 2.804 1.679.016 0 .031.004 1.68.298 2.361-.453l-.019.022q.393-.504-.277-2.133l.008.018q-.597-1.221-2.278-2.838l.006.005q-2.41-2.208-4.453-3.243l-.011-.006q-2.207-1.24-3.113-.944l-.044.01q-.596.116-.945.743l-.016.027q-.336.503-.102 1.214l.003.011q.165.576.666 1.057.017.016.032.035l-.003-.003q.168.197 2.315 1.892c.142.112.159.326.037.477-.121.151-.335.183-.477.071q-2.196-1.733-2.402-1.976l-.018-.022.031.035q-.621-.596-.833-1.334l.004.011q-.338-1.028.193-1.821l-.016.026q.518-.933 1.451-1.112l-.044.011q1.189-.39 3.642.99l-.012-.006q2.118 1.074 4.59 3.338l.005.005q1.759 1.692 2.405 3.012l.008.019q.82 1.995.17 2.828l-.018.021q-.951 1.05-3.009.685l.031.004q-.952-.077-3.144-1.811c-.142-.112-.158-.326-.036-.477.121-.151.335-.183.477-.07"/><path fill="#E1B193" d="M973.287 74.862q.353.268 1.299 1.192c.13.126.125.342-.01.482s-.349.15-.479.024q-.92-.898-1.242-1.143c-.144-.11-.164-.322-.045-.476s.332-.189.477-.08m6.639 7.518q1.158.734 1.446 2.798v-.004q.241 1.585-.468 3.486l.002-.005q-.478 1.342-1.63 3.197l.004-.007q-1.687 2.853-6.147 9.628c-.106.162-.318.215-.471.119-.154-.096-.192-.306-.086-.468q4.45-6.759 6.128-9.597l.005-.007q1.109-1.786 1.561-3.055l.002-.005q.645-1.727.43-3.136l-.001-.005q-.247-1.773-1.164-2.355c-.154-.097-.191-.307-.083-.468.107-.162.319-.214.472-.117m-7.957 21.2q-1.66 2.051-2.444 2.898c-.132.142-.347.158-.479.035-.133-.124-.133-.339-.001-.482q.768-.827 2.411-2.859c.122-.151.336-.182.477-.069.142.112.158.326.036.477M952.018 89.26a12 12 0 0 0-.711 1.09 199 199 0 0 1-2.303 3.899l.002-.003q-.675 1.138-.812 1.677l-.012.037q-.436 1.182 1.022 3.044c.112.143.081.358-.069.481s-.362.107-.474-.036q-1.68-2.146-1.112-3.686l-.011.036q.162-.641.893-1.872l.002-.003q1.178-1.945 2.294-3.884.354-.612.756-1.16c.115-.156.328-.198.475-.093.148.105.175.317.06.473m171.842 585.966q-3.39-3.959-5.55-2.073c-.11.101-.22.214-.34.34 0 .007-.01.013-.01.018-.46.4-.89.954-1.3 1.661l.01-.011a163 163 0 0 1-7.73 13.792l.01-.015c-.88 1.695-1.08 3.037-.59 4.027v.002q1.14 2.357 4.35 4.849v.001c3.96 3.132 6.79 3.631 8.51 1.497q.195-.232.36-.507c0-.006.01-.012.01-.018 5.14-6.527 8.27-11.297 9.4-14.31.81-2.171.21-3.928-1.82-5.269-.08-.056-.1-.174-.04-.263.06-.088.18-.114.26-.058q3.285 2.17 1.95 5.708-1.71 4.578-9.45 14.418l.01-.018q-.18.295-.39.547c-1.88 2.336-4.89 1.861-9.04-1.424v.002c-2.19-1.695-3.67-3.354-4.45-4.976v.002c-.55-1.104-.35-2.561.59-4.372 0-.005.01-.009.01-.014q4.035-6.43 7.71-13.757c0-.004 0-.008.01-.012.43-.745.89-1.332 1.37-1.761l-.01.018c.12-.139.24-.265.37-.378q2.445-2.141 6.09 2.098a.2.2 0 0 1-.03.268.19.19 0 0 1-.27-.012"/><path fill="#E1B193" d="m1128.46 678.944-.2-.163v.004l-1.47-1.08c-.12-.096-.25-.198-.37-.307-.08-.067-.08-.187-.01-.268.07-.08.19-.091.27-.024.11.103.23.2.35.291v-.001l1.47 1.078v.003l.21.163c.08.063.09.183.02.267-.07.083-.19.1-.27.037m-3.07-2.51c-.07-.046-.26-.17-.6-.37-.09-.052-.11-.169-.05-.26.05-.09.17-.121.26-.069.34.206.55.335.62.388.08.06.1.179.03.265a.185.185 0 0 1-.26.046m-.31 4.273c.77.609 1.3.927 1.58.953l.02.002q.945.176 1.32-.239l-.01.012c.15-.186.09-.583-.16-1.192v.01q-.345-.685-1.29-1.596v.003c-.91-.831-1.74-1.443-2.51-1.836v-.003c-.83-.47-1.42-.652-1.75-.545l-.03.006c-.22.041-.4.177-.52.409-.01.005-.01.01-.01.015-.13.185-.14.411-.05.677v.006c.06.215.19.412.38.594 0 .006.01.012.02.019l-.01-.002c.07.074.5.431 1.31 1.069.08.064.09.183.02.267-.06.084-.18.1-.26.037-.83-.653-1.28-1.025-1.36-1.116 0-.005-.01-.009-.01-.013l.02.02a1.74 1.74 0 0 1-.48-.749l.01.006c-.13-.383-.1-.722.1-1.015l-.01.014c.19-.345.46-.549.8-.612l-.02.006q.66-.21 2.04.573v-.003c.79.407 1.65 1.037 2.59 1.889v.002c.66.636 1.12 1.201 1.36 1.695 0 .003 0 .007.01.01.31.745.35 1.272.11 1.579-.01.004-.01.008-.01.012-.36.387-.92.509-1.69.365l.02.003q-.54-.05-1.77-1.029a.186.186 0 0 1-.02-.267c.07-.083.18-.1.26-.036"/><path fill="#E1B193" d="M1123.72 679.316c.13.101.37.325.73.672.07.071.07.192 0 .269-.08.077-.2.082-.27.011-.35-.338-.58-.553-.7-.645a.186.186 0 0 1-.03-.266.195.195 0 0 1 .27-.041m3.75 4.232c.44.278.71.801.83 1.57v-.002c.09.59.01 1.238-.25 1.942l.01-.003q-.27.747-.9 1.775v-.004q-.93 1.582-3.39 5.337a.2.2 0 0 1-.27.064.19.19 0 0 1-.05-.261q2.46-3.746 3.39-5.321v-.004c.41-.66.69-1.225.86-1.695v-.003c.23-.64.31-1.223.22-1.748v-.002c-.09-.661-.32-1.101-.66-1.321-.09-.055-.11-.172-.05-.262.06-.089.18-.117.26-.062m-4.34 11.784c-.62.756-1.07 1.291-1.36 1.603a.193.193 0 0 1-.27.017c-.07-.07-.07-.19 0-.269.29-.305.73-.832 1.34-1.582a.183.183 0 0 1 .26-.036c.08.064.09.183.03.267m-11.25-8.103c-.14.189-.27.391-.4.604-.41.72-.83 1.44-1.27 2.162l.01-.002q-.375.632-.45.932c0 .007-.01.013-.01.02-.16.438.04 1.006.59 1.704a.19.19 0 0 1-.04.268c-.08.068-.2.058-.26-.022-.64-.805-.85-1.493-.64-2.064l-.01.021c.06-.238.22-.585.49-1.04v-.002c.44-.719.86-1.437 1.27-2.154q.195-.34.42-.643a.187.187 0 0 1 .26-.049c.08.06.1.178.04.265m-979.339-77.071q-6.425 5.28-3.776 9.84.213.366.483.73l.026.039q.843 1.439 2.399 2.893l-.017-.015q10.834 8.942 20.254 18.335l-.022-.019q3.744 3.178 6.096 2.214l.003-.001q3.73-1.478 7.892-6.822l.002-.003q7.831-9.824 3.217-15.553a10 10 0 0 0-.763-.843q-14.135-17.166-20.864-21.604-4.849-3.2-8.257 1.943c-.096.145-.278.149-.407.011-.129-.139-.155-.368-.06-.513q3.678-5.547 8.943-2.073 6.815 4.496 21.023 21.749l-.027-.029q.432.428.795.878 5.052 6.272-3.163 16.577l.002-.003q-4.247 5.454-8.096 6.979l.002-.001q-2.62 1.074-6.622-2.323l-.021-.02q-9.394-9.37-20.203-18.289l-.016-.015q-1.64-1.531-2.545-3.076l.026.039a9 9 0 0 1-.536-.81q-3.01-5.181 3.871-10.836c.126-.104.309-.049.409.123s.078.394-.048.498"/><path fill="#E1B193" d="m138.728 602.554-.271.342.006-.008-1.811 2.455q-.242.318-.511.621c-.111.125-.295.101-.411-.055s-.119-.385-.007-.51q.255-.288.484-.589l-.003.004 1.809-2.452.006-.009.271-.341c.106-.133.29-.119.41.03.121.15.134.379.028.512m-4.173 5.075q-.118.16-.631 1.016c-.09.151-.271.165-.403.033-.133-.132-.168-.362-.078-.512q.528-.88.661-1.061c.101-.139.284-.133.409.012.124.145.143.374.042.512m6.503 1.756q1.524-1.91 1.629-2.7l.006-.031q.372-1.72-.222-2.544l.017.022q-.403-.485-1.841-.019l.017-.006q-1.086.45-2.584 1.98l.005-.005q-2.054 2.21-3.081 4.203l-.006.011q-1.213 2.137-1.024 3.131l.007.047q.056.644.568 1.1l.021.021q.406.426 1.03.284l.01-.002q.503-.09.949-.546a.2.2 0 0 1 .033-.028l-.004.002q.18-.147 1.778-2.155c.106-.133.289-.12.41.03s.133.379.028.512q-1.634 2.052-1.856 2.235l-.02.015.032-.028q-.552.565-1.198.681l.01-.002q-.9.204-1.541-.468l.021.021a2.47 2.47 0 0 1-.849-1.684l.007.047q-.25-1.305 1.1-3.679l-.007.011q1.066-2.067 3.172-4.333l.005-.005q1.567-1.601 2.74-2.087l.017-.006q1.76-.57 2.427.232l.017.022q.83 1.152.374 3.258l.006-.031q-.132.988-1.766 3.037c-.106.133-.29.119-.41-.031-.121-.15-.133-.379-.027-.512"/><path fill="#E1B193" d="M138.78 611.565q.254-.332 1.109-1.191c.117-.117.301-.081.411.081s.104.389-.013.506q-.83.835-1.063 1.138c-.103.136-.287.126-.409-.021-.123-.148-.138-.377-.035-.513m6.883-5.878q.709-1.109 2.492-1.112h-.004q1.371-.024 2.945.997l-.004-.002q1.113.698 2.616 2.175l-.006-.005q2.32 2.186 7.795 7.851c.13.136.161.365.068.512s-.274.157-.405.022q-5.463-5.654-7.769-7.827l-.006-.005q-1.448-1.425-2.5-2.083l-.004-.003q-1.431-.928-2.649-.907h-.004q-1.531.002-2.092.881c-.094.147-.276.155-.406.019-.131-.137-.16-.366-.067-.513m17.551 11.432q1.636 2.04 2.304 2.987c.112.159.111.386-.004.508-.114.121-.298.09-.411-.069q-.653-.927-2.274-2.946c-.12-.151-.132-.38-.026-.512.106-.133.29-.118.411.032m-13.621 18.866q.412.47.882.904a197 197 0 0 1 3.168 2.984l-.002-.003q.925.875 1.376 1.097l.03.017q.98.63 2.671-.631c.13-.096.312-.032.406.143s.067.396-.063.492q-1.95 1.453-3.227.632l.031.017q-.537-.264-1.537-1.209l-.002-.002a200 200 0 0 0-3.157-2.973 13 13 0 0 1-.938-.962c-.125-.143-.146-.373-.046-.512.1-.14.282-.137.408.006m629.33 8.621q5.798 6.05 9.71 2.644.313-.274.618-.607l.033-.032q1.234-1.083 2.386-2.917l-.011.019q6.916-12.612 14.445-23.796l-.015.025q2.473-4.37 1.256-6.716l-.001-.002q-1.881-3.726-7.437-7.385l-.002-.002q-10.237-6.915-14.98-1.284a10 10 0 0 0-.686.917q-14.17 17.2-17.422 24.881-2.345 5.537 2.921 8.429c.148.081.177.272.064.427s-.324.213-.472.132q-5.68-3.12-3.134-9.132 3.295-7.783 17.536-25.069l-.023.032q.342-.513.715-.955 5.192-6.165 15.93 1.089l-.003-.002q5.67 3.733 7.61 7.578l-.001-.002q1.356 2.613-1.288 7.284l-.016.025q-7.509 11.155-14.409 23.737l-.011.02q-1.215 1.933-2.538 3.094l.033-.033a8 8 0 0 1-.687.674q-4.443 3.868-10.653-2.61c-.114-.118-.087-.318.06-.446s.358-.136.472-.017"/><path fill="#E1B193" d="m770.984 639.121.355.239-.008-.005 2.539 1.574q.33.211.648.454c.133.1.134.297.004.44-.13.142-.344.177-.476.077a10 10 0 0 0-.615-.431l.003.003-2.535-1.573-.009-.005-.355-.239c-.139-.094-.15-.289-.027-.436.124-.148.337-.191.476-.098m5.304 3.706q.167.102 1.035.527c.153.074.19.262.084.42s-.315.225-.468.151q-.893-.436-1.081-.553c-.143-.087-.162-.281-.043-.432.118-.15.33-.201.473-.113m.774-7.082q-1.99-1.346-2.743-1.35l-.03-.001q-1.66-.16-2.35.577l.018-.021q-.4.49.228 1.94l-.007-.016q.566 1.082 2.196 2.451l-.005-.004q2.341 1.863 4.344 2.675l.011.005q2.162.988 3.066.654.02-.008.043-.013.594-.147.953-.747l.017-.025q.344-.486.128-1.123l-.003-.01q-.152-.517-.638-.925l-.031-.031.003.004q-.162-.17-2.254-1.58c-.138-.093-.15-.289-.026-.436s.336-.191.475-.098q2.139 1.441 2.338 1.651l.018.019-.031-.03q.603.506.797 1.169l-.003-.011q.311.92-.232 1.687l.017-.026q-.534.894-1.462 1.121l.043-.013q-1.187.439-3.589-.66l.011.005q-2.075-.842-4.477-2.753l-.005-.004q-1.707-1.433-2.318-2.603l-.008-.016q-.77-1.776-.108-2.586l.019-.021q.966-1.03 2.998-.835l-.031-.002q.943.006 3.078 1.449c.138.093.149.289.025.436s-.336.191-.475.097"/><path fill="#E1B193" d="M779.406 637.848q-.344-.223-1.262-1.006c-.126-.108-.117-.306.02-.444.137-.137.35-.162.475-.054q.892.761 1.207.964c.141.091.156.285.034.434-.121.149-.333.197-.474.106m-6.419-6.452q-1.132-.596-1.373-2.472l.001.004q-.205-1.44.539-3.234l-.002.005q.504-1.267 1.686-3.048l-.005.006q1.736-2.737 6.303-9.265c.11-.156.32-.219.47-.142.151.078.184.268.075.424q-4.558 6.514-6.284 9.236l-.004.007q-1.138 1.716-1.615 2.912l-.002.005q-.677 1.632-.494 2.911v.004q.207 1.611 1.104 2.084c.15.078.182.268.072.424s-.321.218-.471.139m8.349-20.018q1.69-1.998 2.486-2.83c.134-.139.347-.168.476-.064s.124.302-.01.442q-.78.813-2.452 2.792c-.125.147-.337.19-.475.096-.138-.093-.149-.289-.025-.436m19.469 11.788q.386-.498.728-1.05a208 208 0 0 1 2.368-3.739l-.002.003q.695-1.092.842-1.596l.012-.035q.457-1.116-.947-2.726c-.108-.124-.072-.324.079-.447s.361-.123.469.001q1.619 1.856 1.022 3.31l.012-.034q-.175.6-.926 1.781l-.002.003a212 212 0 0 0-2.359 3.724q-.365.587-.774 1.118c-.118.151-.329.204-.473.118-.145-.087-.166-.28-.049-.431m-413.513-39.625q-.689.577-1.249 2.044a.2.2 0 0 1-.026.047q-.296.386-.386 3.458l-.004.036q-.144.631-.529.886l.03-.024q-1.124 1.085-6.542.01l.015.002q-5.987-.857-9.414-3.648l.009.007q-2.198-1.641-3.155-2.988l.003.004q-2.559-3.429-2.347-4.056a.32.32 0 0 1 .159-.187.4.4 0 0 1 .067-.028.2.2 0 0 1 .06-.011q4.635-.285 14.666 1.579l-.007-.001q6.335 1.022 8.858 2.577c.116.071.153.207.084.303-.07.096-.22.117-.335.046q-2.427-1.495-8.648-2.499l-.007-.001q-9.964-1.853-14.531-1.571l.061-.012.013-.005q.024-.013.029-.029-.147.433 2.277 3.681l.004.004q.91 1.283 3.041 2.873l.009.007q3.306 2.692 9.136 3.528l.015.002q5.154 1.023 6.106.103l.03-.023q.253-.167.364-.654l-.005.036q.093-3.192.462-3.672l-.026.046q.595-1.557 1.36-2.199c.094-.078.248-.068.346.023s.101.228.007.306"/><path fill="#E1B193" d="M386.524 583.665q4.033.629 7.267 1.5l-.003-.001q1.785.462 2.632.922l.013.008q2.88 1.774 2.409 4.152l.001-.003q-.561 3.114-3.837 2.575l.01.002a2.95 2.95 0 0 1-1.424-.6l.022.015q-.531-.329-2.135-2.018l.022.02a3.6 3.6 0 0 0-.841-.537l.003.001q-.72-.313-1.878-.568l.035.005q-2.953-.28-3.34-.461a.33.33 0 0 1-.174-.164c-.048-.115.014-.235.14-.267a.275.275 0 0 1 .316.15.18.18 0 0 0-.086-.098q.295.14 3.149.409l.034.006q1.212.266 1.984.602l.003.001q.505.227.973.621l.021.02q1.556 1.64 2.026 1.93l.023.015q.538.41 1.15.488l.01.002q2.822.464 3.312-2.257v-.003q.414-2.091-2.18-3.69l.014.008q-.785-.428-2.501-.87l-.003-.001q-3.202-.863-7.206-1.487c-.135-.021-.235-.133-.224-.251s.129-.197.263-.176m-2.474 5.56q-2.61.403-5.663-.101c-.134-.023-.233-.136-.221-.254s.131-.195.265-.173q2.966.49 5.491.1c.13-.02.264.059.299.177.036.119-.041.231-.171.251m-7.122-.642a34 34 0 0 0-1.158-.331l-.006-.001-.567-.169c-.131-.039-.212-.162-.181-.275.032-.114.163-.174.295-.135l.567.169-.006-.002q.967.266 1.187.339c.13.043.206.169.17.281-.036.111-.17.167-.301.124m-3.177-.639a8 8 0 0 0-.298-.15c-.124-.058-.181-.189-.127-.294s.197-.143.32-.085q.144.067.323.162c.121.064.169.197.109.299s-.207.131-.327.068"/><path fill="#E1B193" d="M396.915 587.62q-1.282-.942-3.604-1.57c-.132-.036-.217-.157-.189-.272.028-.114.157-.178.289-.142q2.425.657 3.793 1.66c.108.08.132.217.052.306-.08.09-.233.097-.341.018m-4.722-1.689.011.004-.244-.06q-.642-.152-1.093-.254c-.134-.03-.224-.149-.203-.265s.147-.185.28-.155q.454.103 1.098.255a6 6 0 0 1 .306.079c.127.048.197.177.154.286s-.181.159-.309.11"/></svg>