<svg aria-hidden="true" style="position: absolute; width: 0; height: 0; overflow: hidden;" version="1.1" xmlns="http://www.w3.org/2000/svg" xmlns:xlink="http://www.w3.org/1999/xlink">
<defs>
<symbol id="icon-arrow_right" viewBox="0 0 32 32">
<path d="M12.341 2.623c0.93-0.792 1.395-1.189 1.882-1.421 0.555-0.265 1.162-0.402 1.778-0.402s1.222 0.137 1.778 0.402c0.486 0.232 0.952 0.629 1.882 1.421 0.958 0.816 1.931 1.229 3.211 1.33 1.218 0.098 1.827 0.147 2.336 0.326 1.174 0.416 2.099 1.339 2.514 2.515 0.179 0.507 0.229 1.117 0.326 2.336 0.101 1.28 0.512 2.251 1.328 3.21 0.794 0.93 1.19 1.395 1.422 1.882 0.538 1.125 0.538 2.432 0 3.555-0.232 0.486-0.629 0.952-1.421 1.882-0.793 0.89-1.262 2.022-1.33 3.211-0.098 1.218-0.147 1.827-0.326 2.336-0.205 0.58-0.538 1.107-0.973 1.542s-0.962 0.767-1.542 0.972c-0.507 0.179-1.117 0.229-2.336 0.326-1.28 0.101-2.251 0.512-3.21 1.328-0.93 0.794-1.395 1.19-1.882 1.422-0.555 0.265-1.162 0.402-1.778 0.402s-1.222-0.137-1.778-0.402c-0.486-0.232-0.952-0.629-1.882-1.421-0.89-0.793-2.021-1.262-3.211-1.33-1.218-0.098-1.827-0.147-2.336-0.326-0.58-0.205-1.107-0.538-1.542-0.973s-0.767-0.962-0.972-1.542c-0.179-0.507-0.229-1.117-0.326-2.336-0.068-1.189-0.536-2.32-1.328-3.21-0.794-0.93-1.19-1.395-1.424-1.882-0.265-0.555-0.402-1.163-0.402-1.778s0.138-1.222 0.403-1.778c0.232-0.486 0.629-0.952 1.421-1.882 0.832-0.978 1.23-1.957 1.33-3.211 0.098-1.218 0.147-1.827 0.326-2.336 0.205-0.58 0.538-1.107 0.973-1.542s0.962-0.767 1.542-0.972c0.507-0.179 1.117-0.229 2.336-0.326 1.189-0.068 2.32-0.538 3.21-1.33z"></path>
<path d="M9.667 15.747v0zM17.098 9.667l4.729 6.080-4.729 6.080z"></path>
<path fill="none" stroke="#000" style="stroke: var(--color2, #000)" stroke-linejoin="round" stroke-linecap="round" stroke-miterlimit="4" stroke-width="1.2" d="M9.667 15.747h12.16M21.827 15.747l-4.729-6.080M21.827 15.747l-4.729 6.080M12.341 2.623c0.93-0.792 1.395-1.189 1.882-1.421 0.555-0.265 1.162-0.402 1.778-0.402s1.222 0.137 1.778 0.402c0.486 0.232 0.952 0.629 1.882 1.421 0.958 0.816 1.931 1.229 3.211 1.33 1.218 0.098 1.827 0.147 2.336 0.326 1.174 0.416 2.099 1.339 2.514 2.515 0.179 0.507 0.229 1.117 0.326 2.336 0.101 1.28 0.512 2.251 1.328 3.21 0.794 0.93 1.19 1.395 1.422 1.882 0.538 1.125 0.538 2.432 0 3.555-0.232 0.486-0.629 0.952-1.421 1.882-0.793 0.89-1.262 2.022-1.33 3.211-0.098 1.218-0.147 1.827-0.326 2.336-0.205 0.58-0.538 1.107-0.973 1.542s-0.962 0.767-1.542 0.972c-0.507 0.179-1.117 0.229-2.336 0.326-1.28 0.101-2.251 0.512-3.21 1.328-0.93 0.794-1.395 1.19-1.882 1.422-0.555 0.265-1.162 0.402-1.778 0.402s-1.222-0.137-1.778-0.402c-0.486-0.232-0.952-0.629-1.882-1.421-0.89-0.793-2.021-1.262-3.211-1.33-1.218-0.098-1.827-0.147-2.336-0.326-0.58-0.205-1.107-0.538-1.542-0.973s-0.767-0.962-0.972-1.542c-0.179-0.507-0.229-1.117-0.326-2.336-0.068-1.189-0.536-2.32-1.328-3.21-0.794-0.93-1.19-1.395-1.424-1.882-0.265-0.555-0.402-1.163-0.402-1.778s0.138-1.222 0.403-1.778c0.232-0.486 0.629-0.952 1.421-1.882 0.832-0.978 1.23-1.957 1.33-3.211 0.098-1.218 0.147-1.827 0.326-2.336 0.205-0.58 0.538-1.107 0.973-1.542s0.962-0.767 1.542-0.972c0.507-0.179 1.117-0.229 2.336-0.326 1.189-0.068 2.32-0.538 3.21-1.33z"></path>
</symbol>
<symbol id="icon-arrow_left" viewBox="0 0 32 32">
<path  d="M12.341 2.623c0.93-0.792 1.395-1.189 1.882-1.421 0.555-0.265 1.162-0.402 1.778-0.402s1.222 0.137 1.778 0.402c0.486 0.232 0.952 0.629 1.882 1.421 0.958 0.816 1.931 1.229 3.211 1.33 1.218 0.098 1.827 0.147 2.336 0.326 1.174 0.416 2.099 1.339 2.514 2.515 0.179 0.507 0.229 1.117 0.326 2.336 0.101 1.28 0.512 2.251 1.328 3.21 0.794 0.93 1.19 1.395 1.422 1.882 0.538 1.125 0.538 2.432 0 3.555-0.232 0.486-0.629 0.952-1.421 1.882-0.793 0.89-1.262 2.022-1.33 3.211-0.098 1.218-0.147 1.827-0.326 2.336-0.205 0.58-0.538 1.107-0.973 1.542s-0.962 0.767-1.542 0.972c-0.507 0.179-1.117 0.229-2.336 0.326-1.28 0.101-2.251 0.512-3.21 1.328-0.93 0.794-1.395 1.19-1.882 1.422-0.555 0.265-1.162 0.402-1.778 0.402s-1.222-0.137-1.778-0.402c-0.486-0.232-0.952-0.629-1.882-1.421-0.89-0.793-2.021-1.262-3.211-1.33-1.218-0.098-1.827-0.147-2.336-0.326-0.58-0.205-1.107-0.538-1.542-0.973s-0.767-0.962-0.972-1.542c-0.179-0.507-0.229-1.117-0.326-2.336-0.068-1.189-0.536-2.32-1.328-3.21-0.794-0.93-1.19-1.395-1.424-1.882-0.265-0.555-0.402-1.163-0.402-1.778s0.138-1.222 0.403-1.778c0.232-0.486 0.629-0.952 1.421-1.882 0.832-0.978 1.23-1.957 1.33-3.211 0.098-1.218 0.147-1.827 0.326-2.336 0.205-0.58 0.538-1.107 0.973-1.542s0.962-0.767 1.542-0.972c0.507-0.179 1.117-0.229 2.336-0.326 1.189-0.068 2.32-0.538 3.21-1.33z"></path>
<path  d="M21.827 15.747v0zM14.395 21.827l-4.729-6.080 4.729-6.080z"></path>
<path fill="none" stroke="#000" style="stroke: var(--color2, #000)" stroke-linejoin="round" stroke-linecap="round" stroke-miterlimit="4" stroke-width="1.2" d="M21.827 15.747h-12.16M9.667 15.747l4.729 6.080M9.667 15.747l4.729-6.080M12.341 2.623c0.93-0.792 1.395-1.189 1.882-1.421 0.555-0.265 1.162-0.402 1.778-0.402s1.222 0.137 1.778 0.402c0.486 0.232 0.952 0.629 1.882 1.421 0.958 0.816 1.931 1.229 3.211 1.33 1.218 0.098 1.827 0.147 2.336 0.326 1.174 0.416 2.099 1.339 2.514 2.515 0.179 0.507 0.229 1.117 0.326 2.336 0.101 1.28 0.512 2.251 1.328 3.21 0.794 0.93 1.19 1.395 1.422 1.882 0.538 1.125 0.538 2.432 0 3.555-0.232 0.486-0.629 0.952-1.421 1.882-0.793 0.89-1.262 2.022-1.33 3.211-0.098 1.218-0.147 1.827-0.326 2.336-0.205 0.58-0.538 1.107-0.973 1.542s-0.962 0.767-1.542 0.972c-0.507 0.179-1.117 0.229-2.336 0.326-1.28 0.101-2.251 0.512-3.21 1.328-0.93 0.794-1.395 1.19-1.882 1.422-0.555 0.265-1.162 0.402-1.778 0.402s-1.222-0.137-1.778-0.402c-0.486-0.232-0.952-0.629-1.882-1.421-0.89-0.793-2.021-1.262-3.211-1.33-1.218-0.098-1.827-0.147-2.336-0.326-0.58-0.205-1.107-0.538-1.542-0.973s-0.767-0.962-0.972-1.542c-0.179-0.507-0.229-1.117-0.326-2.336-0.068-1.189-0.536-2.32-1.328-3.21-0.794-0.93-1.19-1.395-1.424-1.882-0.265-0.555-0.402-1.163-0.402-1.778s0.138-1.222 0.403-1.778c0.232-0.486 0.629-0.952 1.421-1.882 0.832-0.978 1.23-1.957 1.33-3.211 0.098-1.218 0.147-1.827 0.326-2.336 0.205-0.58 0.538-1.107 0.973-1.542s0.962-0.767 1.542-0.972c0.507-0.179 1.117-0.229 2.336-0.326 1.189-0.068 2.32-0.538 3.21-1.33z"></path>
</symbol>

<symbol id="icon-back_arrow" viewBox="0 0 38 32">
<path d="M19.034 25.053l-4.525 4.525-13.581-13.578 13.578-13.578 4.525 4.528-5.846 5.85h24.118v6.4h-24.118l5.85 5.853z"></path>
</symbol>

<symbol id="icon-google-play-icon" viewBox="0 0 32 32">
<path fill="#ea4335" style="fill: var(--color4, #ea4335)" d="M14.944 15.256l-14.812 14.038c0.166 0.533 0.465 1.025 0.874 1.438s0.916 0.735 1.484 0.944c0.568 0.208 1.18 0.296 1.791 0.257s1.204-0.204 1.734-0.482l16.666-8.586-7.737-7.608z"></path>
<path fill="#fbbc04" style="fill: var(--color5, #fbbc04)" d="M29.921 12.869l-7.207-3.734-8.112 6.44 8.145 7.268 7.152-3.694c0.634-0.3 1.164-0.751 1.535-1.305s0.566-1.188 0.566-1.835-0.196-1.282-0.566-1.835c-0.37-0.554-0.901-1.005-1.535-1.305l0.022 0z"></path>
<path fill="#4285f4" style="fill: var(--color6, #4285f4)" d="M0.133 2.656c-0.089 0.299-0.134 0.608-0.133 0.918v24.8c0.001 0.31 0.045 0.619 0.133 0.919l15.319-13.678-15.319-12.959z"></path>
<path fill="#34a853" style="fill: var(--color7, #34a853)" d="M15.054 15.974l7.66-6.839-16.644-8.626c-0.626-0.332-1.338-0.507-2.064-0.509-1.801-0.003-3.384 1.078-3.874 2.646l14.922 13.329z"></path>
</symbol>

<!-- advantage -->
<symbol id="icon-clock" viewBox="0 0 32 32">
<path stroke-linejoin="miter" stroke-linecap="round" stroke-miterlimit="4" stroke-width="0.8" d="M16.609 7.257h-0.002l0.003 0c0.004 0 0.012 0 0.024 0.001 0.023 0.002 0.058 0.005 0.101 0.012 0.088 0.015 0.199 0.043 0.306 0.097 0.105 0.052 0.198 0.125 0.265 0.226 0.066 0.099 0.123 0.248 0.123 0.483v1.619l2.838 0c0.004 0 0.012 0 0.024 0.001 0.023 0.002 0.058 0.005 0.101 0.012 0.088 0.015 0.199 0.043 0.306 0.096 0.105 0.052 0.198 0.125 0.265 0.226 0.066 0.099 0.123 0.248 0.123 0.483v1.619l2.847 0c0.012 0.001 0.033 0.002 0.059 0.006 0.054 0.007 0.128 0.021 0.21 0.049 0.148 0.050 0.298 0.138 0.4 0.294 0.044 0.268 0.085 0.544 0.106 0.796l0.016 0.189 0.156 0.107c1.086 0.746 1.974 1.744 2.588 2.91s0.933 2.464 0.932 3.781v0c0 4.497-3.637 8.133-8.133 8.133-2.776 0-5.228-1.393-6.705-3.533l-0.107-0.155-0.188-0.016c-5.415-0.458-9.666-4.992-9.666-10.524 0-2.804 1.114-5.493 3.096-7.475s4.67-3.096 7.473-3.096c0.001 0 0.002 0 0.002 0v-0.4M16.609 7.257h-1.619v-2.838c0-0.235-0.058-0.384-0.123-0.483-0.067-0.101-0.16-0.174-0.265-0.226-0.106-0.053-0.218-0.082-0.306-0.097-0.043-0.007-0.078-0.011-0.101-0.012-0.011-0.001-0.019-0.001-0.024-0.001l-0.003-0h0.002c0 0 0 0 0-0.4M16.609 7.257c0 0 0 0 0-0.4M16.609 7.257h0v-0.4M14.171 3.2c0 0 1.219 0 1.219 1.219v2.438h0.4M14.171 3.2c-2.91 0-5.7 1.156-7.758 3.213s-3.213 4.848-3.213 7.758c0 5.742 4.413 10.447 10.033 10.923l2.558-18.237M15.79 6.857h0.819M15.79 6.857h0.819M20.476 20.571v0.228l3.333 1.969-0.494 0.804-3.867-2.314v-5.468h1.029v4.781zM11.825 22.774l0.327-0.718c-0.38-0.256-0.628-0.706-0.628-1.18 0-0.433 0.196-0.815 0.509-1.089l0.119-0.104 0.016-0.157c0.105-1.058 0.407-2.058 0.872-2.965l0.175-0.342-0.334-0.189c-0.446-0.252-0.748-0.723-0.748-1.249 0-0.791 0.638-1.429 1.429-1.429 0.433 0 0.815 0.196 1.089 0.509l0.252 0.288 0.299-0.239c1.103-0.882 2.438-1.475 3.903-1.684l0.343-0.049v-0.844h-2.229c-0.791 0-1.429-0.638-1.429-1.429v-1.010h-1.010c-0.791 0-1.429-0.638-1.429-1.429v-2.203l-0.455 0.063c-3.948 0.549-7.060 3.74-7.571 7.671l0.781 0.162c0.095-0.33 0.306-0.614 0.594-0.801s0.634-0.262 0.974-0.214c0.34 0.049 0.65 0.219 0.875 0.479s0.347 0.592 0.345 0.936v0.002c0 0.791-0.638 1.429-1.429 1.429-0.75 0-1.363-0.579-1.43-1.318l-0.798 0.036v0.014c0 0.587-0 1.225 0.115 1.879 0.526 3.438 3.129 6.28 6.472 7.173zM11.124 10.114c-0.791 0-1.429-0.638-1.429-1.429s0.638-1.429 1.429-1.429c0.791 0 1.429 0.638 1.429 1.429s-0.638 1.429-1.429 1.429zM26.762 20.267c0-3.585-2.91-6.495-6.495-6.495s-6.495 2.91-6.495 6.495c0 3.586 2.91 6.495 6.495 6.495s6.495-2.91 6.495-6.495z"></path>
</symbol>
<symbol id="icon-wifi-slash" viewBox="0 0 32 32">
<path d="M28.419 12.358c-5.525-5.657-13.199-7.437-20.052-4.666l-3.808-4.094c-0.484-0.519-1.281-0.532-1.777-0.028-0.498 0.505-0.51 1.335-0.026 1.854l21.366 22.966c0.246 0.265 1.062 0.757 1.777 0.028 0.496-0.506 0.51-1.335 0.026-1.854l-7.524-8.087c1.139 0.519 2.226 1.297 3.227 2.324 0.245 0.25 0.956 0.74 1.778-0.017 0.465-0.429 0.479-1.347-0.016-1.856-2.374-2.43-5.178-3.74-8.126-3.824l-4.97-5.342c5.714-1.878 11.756-0.252 16.363 4.468 0.245 0.25 1.051 0.716 1.779-0.017 0.499-0.504 0.479-1.347-0.016-1.856v0.001z"></path>
<path d="M5.142 9.826c-0.815 0.538-1.605 1.141-2.346 1.792-0.509 0.447-0.541 1.201-0.017 1.633 0.787 0.648 1.574 0.236 1.826 0.015 0.655-0.575 1.351-1.108 2.070-1.582 0.573-0.379 0.695-1.102 0.271-1.615-0.422-0.513-1.232-0.625-1.806-0.244z"></path>
<path d="M11.104 16.163c-0.978 0.614-1.906 1.412-2.759 2.375-0.452 0.51-0.463 1.349-0.015 1.864 0.644 0.74 1.398 0.269 1.622 0.017 0.701-0.793 1.459-1.446 2.251-1.944 0.556-0.349 0.76-1.15 0.456-1.788s-1.001-0.876-1.555-0.524z"></path>
<path d="M16 28.8c1.767 0 3.2-1.433 3.2-3.2s-1.433-3.2-3.2-3.2c-1.767 0-3.2 1.433-3.2 3.2s1.433 3.2 3.2 3.2z"></path>
</symbol>
<symbol id="icon-productivity" viewBox="0 0 32 32">
<path stroke-linejoin="miter" stroke-linecap="butt" stroke-miterlimit="4" stroke-width="1.6" d="M27.017 18.011l-0.534-0.276c0.121-0.579 0.181-1.161 0.181-1.735s-0.062-1.155-0.181-1.735l0.533-0.276c0.824-0.426 1.414-1.116 1.66-1.941 0.248-0.825 0.123-1.689-0.35-2.428-0.473-0.741-1.239-1.273-2.155-1.495-0.918-0.223-1.876-0.111-2.697 0.315l-0.533 0.276c-0.998-0.768-2.146-1.364-3.385-1.759v-0.557c0-1.765-1.595-3.201-3.555-3.201s-3.555 1.436-3.555 3.201v0.557c-1.241 0.395-2.389 0.991-3.385 1.759l-0.533-0.276c-0.821-0.424-1.78-0.537-2.698-0.315-0.916 0.222-1.681 0.753-2.154 1.494-0.474 0.74-0.598 1.603-0.351 2.429 0.246 0.825 0.837 1.514 1.66 1.941l0.534 0.277c-0.121 0.58-0.181 1.161-0.181 1.734s0.060 1.153 0.181 1.734l-0.534 0.277c-0.824 0.427-1.412 1.116-1.66 1.941-0.248 0.826-0.123 1.689 0.35 2.428 0.473 0.741 1.238 1.273 2.155 1.495 0.914 0.222 1.875 0.111 2.698-0.315l0.533-0.276c0.996 0.769 2.145 1.364 3.385 1.759v0.557c0 1.765 1.595 3.201 3.555 3.201s3.555-1.436 3.555-3.201v-0.557c1.241-0.395 2.389-0.992 3.385-1.759l0.532 0.276c0.824 0.425 1.783 0.537 2.698 0.315 0.916-0.222 1.683-0.753 2.155-1.494s0.597-1.605 0.35-2.429c-0.246-0.825-0.837-1.515-1.659-1.941zM23.988 14.019c0.203 0.662 0.306 1.329 0.306 1.981s-0.103 1.319-0.306 1.981c-0.143 0.468 0.083 0.966 0.551 1.209l1.296 0.671c0.274 0.142 0.47 0.372 0.553 0.647s0.041 0.561-0.117 0.81c-0.158 0.246-0.414 0.424-0.718 0.498-0.308 0.075-0.623 0.037-0.899-0.106l-1.293-0.669c-0.466-0.24-1.058-0.169-1.437 0.179-1.053 0.969-2.385 1.661-3.851 2.002-0.522 0.121-0.889 0.546-0.889 1.033v1.346c0 0.589-0.532 1.067-1.185 1.067s-1.185-0.478-1.185-1.067v-1.346c0-0.486-0.366-0.911-0.889-1.033-1.467-0.341-2.798-1.034-3.851-2.002-0.229-0.21-0.537-0.321-0.847-0.321-0.201 0-0.405 0.047-0.59 0.142l-1.293 0.669c-0.275 0.142-0.594 0.179-0.899 0.106s-0.56-0.251-0.718-0.499c-0.158-0.246-0.199-0.533-0.117-0.809 0.083-0.275 0.28-0.506 0.553-0.647l1.295-0.671c0.468-0.243 0.694-0.739 0.552-1.208-0.203-0.666-0.306-1.332-0.306-1.982s0.103-1.316 0.306-1.982c0.143-0.467-0.084-0.964-0.552-1.208l-1.295-0.671c-0.274-0.142-0.47-0.372-0.553-0.647-0.082-0.275-0.040-0.561 0.117-0.81 0.158-0.246 0.412-0.424 0.718-0.498 0.306-0.076 0.624-0.038 0.899 0.106l1.293 0.669c0.469 0.242 1.060 0.167 1.437-0.179 1.053-0.969 2.384-1.661 3.851-2.002 0.523-0.121 0.889-0.546 0.889-1.033v-1.346c0-0.589 0.532-1.067 1.185-1.067s1.185 0.478 1.185 1.067v1.346c0 0.486 0.366 0.911 0.889 1.033 1.466 0.341 2.798 1.034 3.851 2.002 0.378 0.349 0.969 0.419 1.437 0.179l1.294-0.669c0.271-0.143 0.589-0.181 0.898-0.106 0.306 0.074 0.562 0.251 0.718 0.499 0.159 0.246 0.2 0.533 0.117 0.809-0.082 0.275-0.278 0.506-0.555 0.647l-1.295 0.671c-0.468 0.243-0.694 0.739-0.551 1.209zM20.392 13.737c0.463 0.417 0.463 1.091 0 1.509-0.231 0.208-0.534 0.313-0.838 0.313s-0.607-0.105-0.838-0.313l-1.532-1.379v6.401c0 0.59-0.531 1.067-1.185 1.067s-1.185-0.477-1.185-1.067v-6.401l-1.532 1.379c-0.463 0.417-1.212 0.417-1.675 0s-0.463-1.091 0-1.509l2.779-2.502c0.861-0.778 2.366-0.778 3.23 0l2.776 2.502z"></path>
</symbol>
<symbol id="icon-recipe-book" viewBox="0 0 32 32">
<path d="M11.92 13.684v1.782c0 1.471 1.257 2.667 2.8 2.667h3.36c1.543 0 2.8-1.196 2.8-2.667v-1.782c0.566-0.19 1.073-0.524 1.467-0.976 0.641-0.736 0.9-1.704 0.712-2.655-0.233-1.18-1.216-2.178-2.444-2.481-0.839-0.208-1.686-0.108-2.418 0.275-1.129-0.5-2.464-0.5-3.593 0-0.732-0.381-1.578-0.481-2.419-0.275-1.228 0.303-2.211 1.301-2.445 2.481-0.188 0.951 0.072 1.919 0.712 2.655 0.394 0.452 0.902 0.786 1.467 0.976zM11.941 10.449c0.075-0.379 0.407-0.714 0.806-0.813 0.103-0.024 0.199-0.036 0.29-0.036 0.333 0 0.581 0.15 0.744 0.293 0.39 0.343 0.981 0.38 1.413 0.085 0.727-0.496 1.683-0.496 2.41 0 0.431 0.294 1.024 0.258 1.413-0.085 0.206-0.182 0.553-0.377 1.033-0.257 0.4 0.099 0.731 0.433 0.806 0.813 0.088 0.445-0.11 0.753-0.235 0.898-0.214 0.245-0.529 0.386-0.864 0.386-0.618 0-1.12 0.477-1.12 1.067v2.667c0 0.293-0.251 0.533-0.56 0.533h-3.36c-0.309 0-0.56-0.24-0.56-0.533v-2.667c0-0.59-0.502-1.067-1.12-1.067-0.334 0-0.648-0.141-0.864-0.386-0.125-0.145-0.324-0.453-0.235-0.898h0.001zM22 3.2h-11.2c-3.088 0-5.6 2.393-5.6 5.333v16c0 2.353 2.009 4.267 4.48 4.267h12.32c3.088 0 5.6-2.393 5.6-5.333v-14.933c0-2.941-2.512-5.333-5.6-5.333zM10.8 5.333h11.2c1.852 0 3.36 1.436 3.36 3.2v11.733h-15.68c-0.82 0-1.578 0.226-2.24 0.593v-12.326c0-1.764 1.508-3.2 3.36-3.2zM22 26.667h-12.32c-1.235 0-2.24-0.957-2.24-2.133s1.005-2.133 2.24-2.133h15.68v1.067c0 1.764-1.508 3.2-3.36 3.2z"></path>
</symbol>
<symbol id="icon-SparklesOutline" viewBox="0 0 32 32">
<path d="M6.044 3.2v0zM3.2 6.044v0zM7.467 23.111v0zM4.622 25.956v0zM17.422 3.2l3.251 9.752 8.127 3.048-8.127 3.048-3.251 9.752-3.251-9.752-8.127-3.048 8.127-3.048 3.251-9.752z"></path>
<path fill="none" stroke="#000" style="stroke: var(--color2, #000)" stroke-linejoin="round" stroke-linecap="round" stroke-miterlimit="4" stroke-width="2.4" d="M6.044 3.2v5.689M3.2 6.044h5.689M7.467 23.111v5.689M4.622 25.956h5.689M17.422 3.2l3.251 9.752 8.127 3.048-8.127 3.048-3.251 9.752-3.251-9.752-8.127-3.048 8.127-3.048 3.251-9.752z"></path>
</symbol>
<!-- numbers -->
<symbol id="icon-one" viewBox="0 0 32 32">
<path stroke-linejoin="miter" stroke-linecap="butt" stroke-miterlimit="4" stroke-width="1" d="M27.5 16c0 6.351-5.149 11.5-11.5 11.5s-11.5-5.149-11.5-11.5c0-6.351 5.149-11.5 11.5-11.5s11.5 5.149 11.5 11.5z"></path>
<path stroke-linejoin="round" stroke-linecap="round" stroke-miterlimit="4" stroke-width="2" d="M16 28c6.627 0 12-5.373 12-12s-5.373-12-12-12c-6.627 0-12 5.373-12 12s5.373 12 12 12z"></path>
<path stroke-linejoin="round" stroke-linecap="round" stroke-miterlimit="4" stroke-width="2" d="M16.667 22.667v-13.333l-2.667 2.667"></path>
</symbol>
<symbol id="icon-two" viewBox="0 0 32 32">
<path stroke-linejoin="miter" stroke-linecap="butt" stroke-miterlimit="4" stroke-width="1" d="M27.5 16c0 6.351-5.149 11.5-11.5 11.5s-11.5-5.149-11.5-11.5c0-6.351 5.149-11.5 11.5-11.5s11.5 5.149 11.5 11.5z"></path>
<path stroke-linejoin="round" stroke-linecap="round" stroke-miterlimit="4" stroke-width="2" d="M16 28c6.627 0 12-5.373 12-12s-5.373-12-12-12c-6.627 0-12 5.373-12 12s5.373 12 12 12z"></path>
<path stroke-linejoin="round" stroke-linecap="round" stroke-miterlimit="4" stroke-width="2" d="M12.667 12.667c0-0.548 0.135-1.088 0.394-1.571s0.632-0.896 1.088-1.2c0.456-0.304 0.98-0.492 1.525-0.546s1.096 0.028 1.602 0.238c0.506 0.21 0.953 0.541 1.301 0.965s0.586 0.927 0.693 1.464c0.107 0.538 0.080 1.093-0.079 1.618s-0.445 1.002-0.832 1.389l-5.105 5.104c-0.375 0.375-0.585 0.883-0.585 1.413v1.125h6.667"></path>
</symbol>
<symbol id="icon-three" viewBox="0 0 32 32">
<path stroke-linejoin="miter" stroke-linecap="butt" stroke-miterlimit="4" stroke-width="1" d="M27.5 16c0 6.351-5.149 11.5-11.5 11.5s-11.5-5.149-11.5-11.5c0-6.351 5.149-11.5 11.5-11.5s11.5 5.149 11.5 11.5z"></path>
<path stroke-linejoin="round" stroke-linecap="round" stroke-miterlimit="4" stroke-width="2" d="M16 28c6.627 0 12-5.373 12-12s-5.373-12-12-12c-6.627 0-12 5.373-12 12s5.373 12 12 12z"></path>
<path stroke-linejoin="round" stroke-linecap="round" stroke-miterlimit="4" stroke-width="2" d="M13.333 21.648c0.483 0.432 1.064 0.741 1.693 0.898s1.287 0.16 1.917 0.008c0.63-0.153 1.214-0.457 1.7-0.885s0.862-0.969 1.093-1.575c0.231-0.606 0.312-1.259 0.235-1.902s-0.309-1.259-0.677-1.793c-0.368-0.534-0.86-0.971-1.434-1.272s-1.213-0.459-1.861-0.459l4-5.333h-6.667"></path>
</symbol>
<symbol id="icon-four" viewBox="0 0 32 32">
<path stroke-linejoin="miter" stroke-linecap="butt" stroke-miterlimit="4" stroke-width="1.2308" d="M30.154 16c0 7.817-6.337 14.154-14.154 14.154s-14.154-6.337-14.154-14.154c0-7.817 6.337-14.154 14.154-14.154s14.154 6.337 14.154 14.154z"></path>
<path stroke-linejoin="round" stroke-linecap="round" stroke-miterlimit="4" stroke-width="2.4615" d="M16 30.769c8.157 0 14.769-6.612 14.769-14.769s-6.612-14.769-14.769-14.769c-8.157 0-14.769 6.612-14.769 14.769s6.612 14.769 14.769 14.769z"></path>
<path stroke-linejoin="round" stroke-linecap="round" stroke-miterlimit="4" stroke-width="2.4615" d="M13.538 7.795l-2.087 7.303c-0.14 0.489-0.164 1.003-0.071 1.503s0.301 0.971 0.607 1.377c0.306 0.406 0.702 0.735 1.157 0.961s0.956 0.344 1.464 0.344h5.494M20.103 19.282v-6.564M20.103 19.282v4.923"></path>
</symbol>
<symbol id="icon-five" viewBox="0 0 32 32">
<path stroke-linejoin="miter" stroke-linecap="butt" stroke-miterlimit="4" stroke-width="1.2308" d="M30.154 16c0 7.817-6.337 14.154-14.154 14.154s-14.154-6.337-14.154-14.154c0-7.817 6.337-14.154 14.154-14.154s14.154 6.337 14.154 14.154z"></path>
<path stroke-linejoin="round" stroke-linecap="round" stroke-miterlimit="4" stroke-width="2.4615" d="M16 30.769c8.157 0 14.769-6.612 14.769-14.769s-6.612-14.769-14.769-14.769c-8.157 0-14.769 6.612-14.769 14.769s6.612 14.769 14.769 14.769z"></path>
<path stroke-linejoin="round" stroke-linecap="round" stroke-miterlimit="4" stroke-width="2.4615" d="M11.898 22.951c0.708 0.634 1.585 1.049 2.524 1.195s1.9 0.018 2.768-0.37c0.868-0.388 1.604-1.019 2.121-1.816s0.792-1.728 0.792-2.678c0-0.95-0.275-1.88-0.792-2.678s-1.254-1.428-2.121-1.816c-0.868-0.388-1.829-0.517-2.768-0.37s-1.816 0.561-2.524 1.195l1.641-7.818h6.564"></path>
</symbol>
</defs>
</svg>


