<svg aria-hidden="true" style="position: absolute; width: 0; height: 0; overflow: hidden;" version="1.1" xmlns="http://www.w3.org/2000/svg" xmlns:xlink="http://www.w3.org/1999/xlink">
<defs>
<symbol id="icon-ri_double-quotes-l" viewBox="0 0 32 32">
<path fill="#fff" style="fill: var(--color1, #fff)" d="M6.012 22.506c-1.309-1.387-2.012-2.942-2.012-5.462 0-4.436 3.123-8.411 7.665-10.377l1.135 1.746c-4.239 2.286-5.068 5.253-5.399 7.124 0.683-0.352 1.576-0.475 2.452-0.394 2.293 0.212 4.101 2.089 4.101 4.422 0 1.177-0.469 2.305-1.303 3.137s-1.966 1.299-3.146 1.299c-0.653-0.006-1.297-0.141-1.897-0.397s-1.142-0.629-1.596-1.097zM18.724 22.506c-1.309-1.387-2.012-2.942-2.012-5.462 0-4.436 3.123-8.411 7.665-10.377l1.135 1.746c-4.239 2.286-5.068 5.253-5.399 7.124 0.683-0.352 1.576-0.475 2.452-0.394 2.293 0.212 4.101 2.089 4.101 4.422 0 1.177-0.469 2.305-1.303 3.137s-1.966 1.299-3.146 1.299c-0.653-0.006-1.297-0.141-1.897-0.397s-1.142-0.629-1.596-1.097z"></path>
</symbol>
<symbol id="icon-bitcoin-icons_cross-filled" viewBox="0 0 32 32">
<path d="M7.294 7.293c0.188-0.187 0.442-0.292 0.707-0.292s0.519 0.105 0.707 0.292l16 16c0.098 0.091 0.177 0.202 0.232 0.325s0.084 0.255 0.086 0.389c0.002 0.134-0.022 0.268-0.073 0.392s-0.125 0.238-0.22 0.333c-0.095 0.095-0.208 0.17-0.333 0.22s-0.258 0.075-0.392 0.073c-0.134-0.002-0.267-0.032-0.389-0.086s-0.233-0.133-0.325-0.232l-16-16c-0.187-0.188-0.292-0.442-0.292-0.707s0.105-0.519 0.292-0.707z"></path>
<path d="M24.706 7.293c0.187 0.188 0.293 0.442 0.293 0.707s-0.105 0.519-0.293 0.707l-16 16c-0.19 0.177-0.44 0.273-0.699 0.268s-0.506-0.109-0.689-0.293-0.288-0.43-0.293-0.689c-0.005-0.259 0.092-0.51 0.268-0.699l16-16c0.188-0.187 0.442-0.292 0.707-0.292s0.519 0.105 0.707 0.292z"></path>
</symbol>
</defs>
</svg>
