<svg aria-hidden="true" style="position: absolute; width: 0; height: 0; overflow: hidden;" version="1.1" xmlns="http://www.w3.org/2000/svg" xmlns:xlink="http://www.w3.org/1999/xlink">
<defs>
<symbol id="icon-number-5" viewBox="0 0 32 32">
<path fill="#fff" style="fill: var(--color1, #fff)" d="M13.333 20.903c-0.412-0.368-1.044-0.333-1.412 0.079s-0.333 1.044 0.079 1.412l1.333-1.491zM12.667 15.685l-0.979-0.205c-0.089 0.423 0.104 0.855 0.478 1.071s0.845 0.168 1.167-0.12l-0.667-0.745zM14 9.333v-1c-0.473 0-0.881 0.332-0.979 0.795l0.979 0.205zM19.333 10.333c0.552 0 1-0.448 1-1s-0.448-1-1-1v2zM16 29c7.18 0 13-5.82 13-13h-2c0 6.075-4.925 11-11 11v2zM29 16c0-7.18-5.82-13-13-13v2c6.075 0 11 4.925 11 11h2zM16 3c-7.18 0-13 5.82-13 13h2c0-6.075 4.925-11 11-11v-2zM3 16c0 7.18 5.82 13 13 13v-2c-6.075 0-11-4.925-11-11h-2zM12 22.393c0.719 0.643 1.61 1.065 2.563 1.214l0.308-1.976c-0.572-0.089-1.106-0.342-1.538-0.728l-1.333 1.491zM14.563 23.607c0.954 0.149 1.93 0.018 2.811-0.376l-0.817-1.826c-0.529 0.236-1.114 0.315-1.687 0.226l-0.308 1.976zM17.375 23.231c0.881-0.394 1.629-1.035 2.154-1.845l-1.678-1.088c-0.315 0.486-0.764 0.87-1.293 1.107l0.817 1.826zM19.529 21.386c0.525-0.81 0.804-1.755 0.804-2.72h-2c0 0.579-0.168 1.146-0.483 1.632l1.678 1.088zM20.333 18.667c0-0.965-0.279-1.91-0.804-2.72l-1.678 1.088c0.315 0.486 0.483 1.053 0.483 1.632h2zM19.529 15.947c-0.525-0.81-1.273-1.451-2.154-1.845l-0.817 1.826c0.529 0.236 0.978 0.621 1.293 1.107l1.678-1.088zM17.375 14.102c-0.881-0.394-1.857-0.525-2.811-0.376l0.308 1.976c0.572-0.089 1.158-0.011 1.687 0.226l0.817-1.826zM14.563 13.726c-0.954 0.149-1.844 0.57-2.563 1.214l1.333 1.491c0.432-0.386 0.966-0.639 1.538-0.728l-0.308-1.976zM13.645 15.891l1.333-6.352-1.957-0.411-1.333 6.352 1.957 0.411zM14 10.333h5.333v-2h-5.333v2z"></path>
</symbol>
<symbol id="icon-number-4" viewBox="0 0 32 32">
<path d="M14.961 9.608c0.152-0.531-0.156-1.085-0.687-1.236s-1.085 0.156-1.236 0.687l1.923 0.55zM12.304 15.267v0zM14.869 18.667v-1h-0.001l0.001 1zM20.333 13.333c0-0.552-0.448-1-1-1s-1 0.448-1 1h2zM18.333 22.667c0 0.552 0.448 1 1 1s1-0.448 1-1h-2zM16 29c7.18 0 13-5.82 13-13h-2c0 6.075-4.925 11-11 11v2zM29 16c0-7.18-5.82-13-13-13v2c6.075 0 11 4.925 11 11h2zM16 3c-7.18 0-13 5.82-13 13h2c0-6.075 4.925-11 11-11v-2zM3 16c0 7.18 5.82 13 13 13v-2c-6.075 0-11-4.925-11-11h-2zM13.039 9.059l-1.696 5.933 1.923 0.55 1.696-5.933-1.923-0.55zM11.343 14.992c-0.156 0.546-0.183 1.121-0.080 1.679l1.966-0.366c-0.047-0.254-0.035-0.515 0.036-0.763l-1.923-0.55zM11.263 16.671c0.104 0.558 0.336 1.085 0.678 1.538l1.597-1.205c-0.155-0.206-0.261-0.445-0.308-0.699l-1.966 0.366zM11.941 18.208c0.342 0.453 0.784 0.821 1.293 1.074l0.891-1.79c-0.231-0.115-0.432-0.282-0.588-0.488l-1.597 1.205zM13.234 19.282c0.508 0.253 1.068 0.385 1.636 0.384l-0.001-2c-0.258 0-0.513-0.060-0.744-0.175l-0.891 1.79zM14.869 19.667h4.464v-2h-4.464v2zM20.333 18.667v-5.333h-2v5.333h2zM18.333 18.667v4h2v-4h-2z"></path>
</symbol>
<symbol id="icon-number-3" viewBox="0 0 32 32">
<path fill="#fff" style="fill: var(--color1, #fff)" d="M14 20.903c-0.412-0.368-1.044-0.333-1.412 0.079s-0.333 1.044 0.079 1.412l1.333-1.491zM16 14.667l-0.8-0.6c-0.227 0.303-0.264 0.708-0.094 1.047s0.516 0.553 0.894 0.553v-1zM20 9.333l0.8 0.6c0.227-0.303 0.264-0.708 0.094-1.047s-0.516-0.553-0.894-0.553v1zM13.333 8.333c-0.552 0-1 0.448-1 1s0.448 1 1 1v-2zM16 29c7.18 0 13-5.82 13-13h-2c0 6.075-4.925 11-11 11v2zM29 16c0-7.18-5.82-13-13-13v2c6.075 0 11 4.925 11 11h2zM16 3c-7.18 0-13 5.82-13 13h2c0-6.075 4.925-11 11-11v-2zM3 16c0 7.18 5.82 13 13 13v-2c-6.075 0-11-4.925-11-11h-2zM12.667 22.393c0.604 0.54 1.331 0.926 2.117 1.123l0.487-1.94c-0.472-0.118-0.908-0.35-1.27-0.674l-1.333 1.491zM14.783 23.516c0.786 0.197 1.608 0.201 2.396 0.009l-0.472-1.944c-0.473 0.115-0.966 0.113-1.438-0.006l-0.487 1.94zM17.179 23.526c0.788-0.191 1.517-0.571 2.125-1.107l-1.322-1.501c-0.365 0.321-0.803 0.549-1.275 0.664l0.472 1.944zM19.305 22.419c0.608-0.536 1.077-1.211 1.366-1.968l-1.868-0.714c-0.174 0.454-0.455 0.86-0.82 1.181l1.322 1.501zM20.671 20.451c0.289-0.757 0.39-1.573 0.294-2.378l-1.986 0.238c0.058 0.483-0.003 0.973-0.176 1.427l1.868 0.714zM20.965 18.073c-0.096-0.805-0.387-1.574-0.846-2.242l-1.647 1.134c0.276 0.401 0.45 0.862 0.508 1.345l1.986-0.238zM20.118 15.831c-0.46-0.668-1.075-1.213-1.792-1.591l-0.93 1.77c0.43 0.226 0.799 0.554 1.075 0.954l1.647-1.134zM18.326 14.241c-0.718-0.377-1.516-0.574-2.326-0.574v2c0.486 0 0.965 0.118 1.396 0.344l0.93-1.77zM16.8 15.267l4-5.333-1.6-1.2-4 5.333 1.6 1.2zM20 8.333h-6.667v2h6.667v-2z"></path>
</symbol>
<symbol id="icon-number-2" viewBox="0 0 32 32">
<path d="M11.667 12.666c-0 0.552 0.447 1 1 1s1-0.448 1-1l-2-0zM18.357 15.024v0zM13.252 20.128v0zM12.667 21.541v0zM12.667 22.667h-1c0 0.552 0.448 1 1 1v-1zM19.333 23.667c0.552 0 1-0.448 1-1s-0.448-1-1-1v2zM16 29c7.18 0 13-5.82 13-13h-2c0 6.075-4.925 11-11 11v2zM29 16c0-7.18-5.82-13-13-13v2c6.075 0 11 4.925 11 11h2zM16 3c-7.18 0-13 5.82-13 13h2c0-6.075 4.925-11 11-11v-2zM3 16c0 7.18 5.82 13 13 13v-2c-6.075 0-11-4.925-11-11h-2zM13.667 12.667c0-0.384 0.095-0.761 0.276-1.1l-1.764-0.943c-0.336 0.628-0.512 1.33-0.512 2.043l2 0zM13.942 11.567c0.181-0.338 0.443-0.627 0.762-0.84l-1.111-1.663c-0.592 0.396-1.078 0.932-1.414 1.56l1.764 0.943zM14.704 10.727c0.319-0.213 0.686-0.344 1.067-0.382l-0.196-1.99c-0.709 0.070-1.39 0.313-1.983 0.709l1.111 1.663zM15.771 10.345c0.382-0.038 0.767 0.020 1.122 0.166l0.765-1.848c-0.658-0.273-1.374-0.379-2.083-0.309l0.196 1.99zM16.893 10.512c0.355 0.147 0.667 0.379 0.911 0.675l1.546-1.269c-0.452-0.551-1.033-0.982-1.691-1.254l-0.765 1.848zM17.804 11.187c0.243 0.297 0.41 0.649 0.485 1.025l1.962-0.39c-0.139-0.699-0.448-1.353-0.9-1.903l-1.546 1.269zM18.288 12.212c0.075 0.376 0.056 0.765-0.056 1.132l1.914 0.58c0.207-0.682 0.242-1.404 0.103-2.103l-1.962 0.39zM18.233 13.344c-0.111 0.367-0.311 0.701-0.583 0.973l1.414 1.414c0.504-0.504 0.876-1.124 1.082-1.806l-1.914-0.58zM17.65 14.317l-5.105 5.104 1.414 1.414 5.105-5.104-1.414-1.414zM12.545 19.421c-0.562 0.562-0.878 1.325-0.878 2.12l2 0c0-0.265 0.105-0.519 0.293-0.707l-1.415-1.414zM11.667 21.541v1.125h2v-1.125h-2zM12.667 23.667h6.667v-2h-6.667v2z"></path>
</symbol>
<symbol id="icon-number-1" viewBox="0 0 32 32">
<path fill="#fff" style="fill: var(--color1, #fff)" d="M15.667 22.667c0 0.552 0.448 1 1 1s1-0.448 1-1h-2zM16.667 9.333h1c0-0.404-0.244-0.769-0.617-0.924s-0.804-0.069-1.090 0.217l0.707 0.707zM13.293 11.293c-0.39 0.39-0.39 1.024 0 1.414s1.024 0.39 1.414 0l-1.414-1.414zM16 29c7.18 0 13-5.82 13-13h-2c0 6.075-4.925 11-11 11v2zM29 16c0-7.18-5.82-13-13-13v2c6.075 0 11 4.925 11 11h2zM16 3c-7.18 0-13 5.82-13 13h2c0-6.075 4.925-11 11-11v-2zM3 16c0 7.18 5.82 13 13 13v-2c-6.075 0-11-4.925-11-11h-2zM17.667 22.667v-13.333h-2v13.333h2zM15.96 8.626l-2.667 2.667 1.414 1.414 2.667-2.667-1.414-1.414z"></path>
</symbol>
<symbol id="icon-ri_double-quotes-l" viewBox="0 0 32 32">
<path fill="#fff" style="fill: var(--color1, #fff)" d="M6.012 22.506c-1.309-1.387-2.012-2.942-2.012-5.462 0-4.436 3.123-8.411 7.665-10.377l1.135 1.746c-4.239 2.286-5.068 5.253-5.399 7.124 0.683-0.352 1.576-0.475 2.452-0.394 2.293 0.212 4.101 2.089 4.101 4.422 0 1.177-0.469 2.305-1.303 3.137s-1.966 1.299-3.146 1.299c-0.653-0.006-1.297-0.141-1.897-0.397s-1.142-0.629-1.596-1.097zM18.724 22.506c-1.309-1.387-2.012-2.942-2.012-5.462 0-4.436 3.123-8.411 7.665-10.377l1.135 1.746c-4.239 2.286-5.068 5.253-5.399 7.124 0.683-0.352 1.576-0.475 2.452-0.394 2.293 0.212 4.101 2.089 4.101 4.422 0 1.177-0.469 2.305-1.303 3.137s-1.966 1.299-3.146 1.299c-0.653-0.006-1.297-0.141-1.897-0.397s-1.142-0.629-1.596-1.097z"></path>
</symbol>
<symbol id="icon-bitcoin-icons_cross-filled" viewBox="0 0 32 32">
<path d="M7.294 7.293c0.188-0.187 0.442-0.292 0.707-0.292s0.519 0.105 0.707 0.292l16 16c0.098 0.091 0.177 0.202 0.232 0.325s0.084 0.255 0.086 0.389c0.002 0.134-0.022 0.268-0.073 0.392s-0.125 0.238-0.22 0.333c-0.095 0.095-0.208 0.17-0.333 0.22s-0.258 0.075-0.392 0.073c-0.134-0.002-0.267-0.032-0.389-0.086s-0.233-0.133-0.325-0.232l-16-16c-0.187-0.188-0.292-0.442-0.292-0.707s0.105-0.519 0.292-0.707z"></path>
<path d="M24.706 7.293c0.187 0.188 0.293 0.442 0.293 0.707s-0.105 0.519-0.293 0.707l-16 16c-0.19 0.177-0.44 0.273-0.699 0.268s-0.506-0.109-0.689-0.293-0.288-0.43-0.293-0.689c-0.005-0.259 0.092-0.51 0.268-0.699l16-16c0.188-0.187 0.442-0.292 0.707-0.292s0.519 0.105 0.707 0.292z"></path>
</symbol>
</defs>
</svg>
